<svg  fill="none" xmlns="http://www.w3.org/2000/svg">

<symbol id="hamburger__menu">
    <path d="M24 0H2.06335C0.868778 0 0 0.868778 0 2.06335V2.38914C0 3.47511 0.868778 4.34389 2.06335 4.34389H24.1086C25.1946 4.34389 26.1719 3.47511 26.1719 2.28054V2.06335C26.0633 0.868778 25.1946 0 24 0Z"/>
    <path d="M24 9.77374H2.06335C0.868778 9.77374 0 10.7511 0 11.8371V12.1629C0 13.2489 0.868778 14.2262 2.06335 14.2262H24.1086C25.1946 14.2262 26.1719 13.3575 26.1719 12.1629V11.8371C26.0633 10.7511 25.1946 9.77374 24 9.77374Z"/>
    <path d="M24 19.5475H2.06335C0.977376 19.5475 0 20.4163 0 21.6109V21.9367C0 23.0226 0.868778 24 2.06335 24H24.1086C25.1946 24 26.1719 23.1312 26.1719 21.9367V21.6109C26.0633 20.5249 25.1946 19.5475 24 19.5475Z"/>
</symbol>

<symbol id="composition">
<path d="M66.6903 19.1641L60.8069 13.2789C59.9858 12.4575 58.8943 12 57.7301 12C56.5659 12 55.4641 12.4575 54.6429 13.2789C53.7802 14.142 53.3436 15.2961 53.3644 16.4607C52.2002 16.4399 51.0464 16.8766 50.1837 17.7396C49.3209 18.6026 48.8843 19.7568 48.9051 20.9213C47.7409 20.8901 46.5871 21.3373 45.7244 22.2003C44.8616 23.0633 44.425 24.2175 44.4458 25.382C43.2816 25.3612 42.1278 25.7979 41.2651 26.6609L26.7127 41.2179L22.3157 45.6162C22.191 45.7306 22.0974 45.8865 22.0455 46.0529C22.0455 46.0737 22.0351 46.0841 22.0351 46.1049C21.9727 46.344 21.9935 46.5832 22.0974 46.7911C22.1182 46.8431 22.1494 46.8847 22.1702 46.9367C22.3053 47.1343 22.5028 47.2902 22.7523 47.363L26.3177 48.382L27.3363 51.9485C27.4299 52.2916 27.7001 52.5619 28.0536 52.6659L31.6189 53.6849L32.6376 57.2514C32.7103 57.5009 32.8663 57.6985 33.0741 57.8336C33.1157 57.8648 33.1573 57.8856 33.2093 57.9064C33.3444 57.9688 33.4899 58 33.6355 58C33.729 58 33.8226 57.9896 33.9265 57.9584C34.1136 57.9064 34.2695 57.8128 34.3943 57.6777L38.7912 53.2794L45.1007 46.9679C45.2254 47.0927 45.371 47.1759 45.5373 47.2278C45.9011 47.3318 46.2961 47.2382 46.5663 46.9679L54.0816 39.4503C54.487 39.0448 54.487 38.3897 54.0816 37.9842L53.9881 37.8906C54.4247 37.1731 54.6325 36.3517 54.6222 35.5303C55.7863 35.5511 56.9401 35.1144 57.8029 34.2514C58.6656 33.3883 59.1022 32.2342 59.0814 31.0696C60.2456 31.1008 61.3994 30.6537 62.2622 29.7907C63.1249 28.9277 63.5615 27.7735 63.5407 26.609C64.7049 26.6297 65.8587 26.193 66.7215 25.33C67.5426 24.5086 68 23.4064 68 22.2419C67.9688 21.0877 67.5218 19.9855 66.6903 19.1641ZM34.1344 54.9638L33.4484 52.5411C33.3548 52.198 33.0845 51.9277 32.7311 51.8237L29.1658 50.8151L28.1471 47.2486C28.0536 46.9055 27.7833 46.6352 27.4299 46.5312L25.0079 45.8449L27.4299 43.4222L36.5459 52.5411L34.1344 54.9638ZM46.4208 44.1501L43.9781 32.8476C43.8533 32.2862 43.3024 31.9326 42.7411 32.047C42.1798 32.1718 41.8264 32.7229 41.9407 33.2844L44.4043 44.6908L38.022 51.075L28.9059 41.9561L41.9927 28.8653L51.8468 38.7224L46.4208 44.1501ZM65.2246 23.8639C64.5282 24.5606 63.468 24.7373 62.5948 24.2902C62.1998 24.0927 61.7113 24.1655 61.3994 24.4878C61.0876 24.8101 61.0044 25.2884 61.2019 25.6835C61.6385 26.5674 61.4618 27.6279 60.7758 28.3142C60.0897 29.0005 59.0191 29.1876 58.1459 28.7405C57.7509 28.5429 57.2624 28.6157 56.9505 28.9381C56.6387 29.25 56.5555 29.7387 56.753 30.1338C57.1896 31.0176 57.0129 32.0782 56.3269 32.7645C55.6304 33.4611 54.5702 33.6379 53.697 33.1908C53.302 32.9932 52.8135 33.066 52.5017 33.3883C52.1898 33.7003 52.1067 34.189 52.3042 34.5841C52.5744 35.1352 52.616 35.7486 52.4289 36.3101L43.6662 27.5448C44.2276 27.368 44.8408 27.3992 45.3917 27.6695C45.7867 27.8671 46.2753 27.7943 46.5871 27.472C46.899 27.1496 46.9821 26.6713 46.7846 26.2762C46.348 25.3924 46.5248 24.3318 47.2108 23.6456C47.8968 22.9593 48.9675 22.7722 49.8406 23.2193C50.2356 23.4168 50.7242 23.344 51.036 23.0217C51.3479 22.7098 51.431 22.2211 51.2335 21.8259C50.7969 20.9421 50.9736 19.8816 51.6597 19.1953C52.3561 18.4986 53.4164 18.3219 54.2895 18.769C54.6845 18.9665 55.1731 18.8938 55.4849 18.5714C55.7967 18.2595 55.8799 17.7708 55.6824 17.3757C55.2458 16.4919 55.4225 15.4313 56.1086 14.745C56.5452 14.3083 57.1169 14.0796 57.7301 14.0796C58.3434 14.0796 58.9151 14.3187 59.3517 14.745L65.2246 20.6302C65.6612 21.0669 65.8899 21.6388 65.8899 22.2523C65.8899 22.8553 65.6508 23.4376 65.2246 23.8639Z"/>
<path d="M26.9369 65.8641C27.815 65.8641 28.6044 66.0463 29.305 66.4106L28.9687 67.994L28.8146 68.064C28.5343 67.8679 28.2261 67.7137 27.8898 67.6016C27.5535 67.4895 27.2078 67.4335 26.8529 67.4335C25.3676 67.4335 24.625 68.4097 24.625 70.362C24.625 71.4176 24.8165 72.2116 25.1995 72.7441C25.5918 73.2672 26.1616 73.5287 26.9089 73.5287C27.2546 73.5287 27.6095 73.4774 27.9738 73.3746C28.3475 73.2625 28.6838 73.113 28.9827 72.9262L29.1509 73.0243L28.9967 74.6357C28.2868 74.9626 27.5395 75.1261 26.7548 75.1261C25.4096 75.1261 24.3821 74.7338 23.6721 73.9491C22.9715 73.1644 22.6212 72.0388 22.6212 70.5722C22.6212 69.0776 22.9949 67.9192 23.7422 67.0972C24.4988 66.2751 25.5638 65.8641 26.9369 65.8641ZM34.6539 65.8501C35.9243 65.8501 36.9005 66.2378 37.5824 67.0131C38.2737 67.7791 38.6193 68.8721 38.6193 70.2919C38.6193 71.8426 38.2456 73.0383 37.4983 73.879C36.751 74.7198 35.6954 75.1401 34.3316 75.1401C33.0705 75.1401 32.0943 74.7478 31.4031 73.9631C30.7212 73.1691 30.3802 72.0481 30.3802 70.6002C30.3802 69.0776 30.7492 67.9052 31.4872 67.0832C32.2345 66.2611 33.29 65.8501 34.6539 65.8501ZM34.4857 67.3774C33.7384 67.3774 33.1966 67.611 32.8603 68.078C32.524 68.5451 32.3559 69.3064 32.3559 70.362C32.3559 71.567 32.5194 72.4264 32.8463 72.9402C33.1826 73.454 33.7338 73.7109 34.4998 73.7109C35.2471 73.7109 35.7889 73.4774 36.1252 73.0103C36.4614 72.5339 36.6296 71.7585 36.6296 70.6843C36.6296 69.4979 36.4614 68.6525 36.1252 68.1481C35.7982 67.6343 35.2517 67.3774 34.4857 67.3774ZM44.0826 65.8641C44.9607 65.8641 45.75 66.0463 46.4506 66.4106L46.1143 67.994L45.9602 68.064C45.68 67.8679 45.3717 67.7137 45.0354 67.6016C44.6991 67.4895 44.3535 67.4335 43.9985 67.4335C42.5132 67.4335 41.7706 68.4097 41.7706 70.362C41.7706 71.4176 41.9621 72.2116 42.3451 72.7441C42.7374 73.2672 43.3073 73.5287 44.0546 73.5287C44.4002 73.5287 44.7552 73.4774 45.1195 73.3746C45.4931 73.2625 45.8294 73.113 46.1284 72.9262L46.2965 73.0243L46.1424 74.6357C45.4324 74.9626 44.6851 75.1261 43.9004 75.1261C42.5553 75.1261 41.5277 74.7338 40.8178 73.9491C40.1172 73.1644 39.7669 72.0388 39.7669 70.5722C39.7669 69.0776 40.1405 67.9192 40.8878 67.0972C41.6445 66.2751 42.7094 65.8641 44.0826 65.8641ZM53.7192 66.1304L53.6071 67.5456L51.9116 67.4615H51.3511L51.2811 72.1415L51.3651 75H49.4595L49.5576 72.3097L49.4875 67.4615H48.927L47.2036 67.5456L47.0775 67.3914L47.2036 65.9762H53.6071L53.7192 66.1304ZM61.4165 75H59.4829L59.2587 73.823L59.0205 72.9823L57.2549 72.9402L55.6996 72.9823L55.4614 73.7249L55.2232 75H53.3456L56.4002 65.9762H58.6561L61.4165 75ZM58.6141 71.511L57.5492 67.7558H57.4231L56.19 71.511L57.3951 71.539L58.6141 71.511ZM67.6024 70.32C68.2189 70.4694 68.672 70.7216 68.9616 71.0766C69.2605 71.4222 69.41 71.88 69.41 72.4498C69.41 74.1966 68.0415 75.0701 65.3044 75.0701C64.5011 75.0701 63.679 75.0467 62.8383 75L62.9364 72.3097L62.8383 65.9762L66.0471 65.9622C66.9719 65.9622 67.6912 66.1584 68.2049 66.5507C68.7187 66.9337 68.9756 67.4895 68.9756 68.2182C68.9756 68.7039 68.8542 69.1289 68.6113 69.4933C68.3777 69.8576 68.0415 70.1331 67.6024 70.32ZM67.0279 68.4704C67.0279 68.0593 66.9065 67.7698 66.6636 67.6016C66.4207 67.4241 65.9957 67.3354 65.3885 67.3354H64.7019L64.6599 69.7875L65.977 69.8295C66.332 69.7361 66.5935 69.582 66.7617 69.3671C66.9392 69.1523 67.0279 68.8534 67.0279 68.4704ZM65.6267 73.7109C66.2152 73.7109 66.6683 73.5941 66.9859 73.3606C67.3128 73.1271 67.4763 72.7908 67.4763 72.3517C67.4763 71.6885 67.0466 71.2775 66.1872 71.1187L64.6319 71.1467L64.6178 72.1415L64.6599 73.6548C64.9868 73.6922 65.3091 73.7109 65.6267 73.7109Z"/>
</symbol>

<symbol id="drymilk">
<path d="M61.488 16.616C62.5333 16.616 63.456 16.8507 64.256 17.32L63.952 18.776L63.792 18.824C63.0773 18.2693 62.288 17.992 61.424 17.992C60.4853 17.992 59.7653 18.312 59.264 18.952C58.7733 19.5813 58.528 20.5253 58.528 21.784C58.528 23.0747 58.7787 24.056 59.28 24.728C59.7813 25.4 60.496 25.736 61.424 25.736C61.872 25.736 62.3147 25.6613 62.752 25.512C63.2 25.352 63.6107 25.1333 63.984 24.856L64.144 24.952L64.016 26.456C63.0987 26.904 62.192 27.128 61.296 27.128C59.856 27.128 58.7467 26.68 57.968 25.784C57.1893 24.888 56.8 23.6133 56.8 21.96C56.8 20.2533 57.2053 18.936 58.016 18.008C58.8373 17.08 59.9947 16.616 61.488 16.616ZM66.6376 20.616L68.2376 25.304H68.3496L69.9496 20.76L70.2216 19.624H71.6296L69.0856 26.632C68.8296 27.3573 68.547 27.9333 68.2376 28.36C67.9283 28.7973 67.5443 29.144 67.0856 29.4C66.6376 29.656 66.051 29.8747 65.3256 30.056H65.1816C64.9256 29.8 64.7016 29.48 64.5096 29.096L64.5576 28.92C65.315 28.7813 65.9123 28.5787 66.3496 28.312C66.787 28.0453 67.187 27.608 67.5496 27L64.8616 19.656L66.3976 19.576L66.6376 20.616ZM74.1504 20.36L75.4624 22.344L76.6944 20.328L77.0784 19.624H78.5344L76.3264 23.24L78.6784 26.936L76.9664 27.08L76.6144 26.248L75.2544 24.184L73.8944 26.328L73.5584 27H72.1024L74.3584 23.272L72.1024 19.672L73.8304 19.576L74.1504 20.36ZM82.7344 19.48C83.769 19.48 84.5637 19.8053 85.1184 20.456C85.6837 21.096 85.9664 22.008 85.9664 23.192C85.9664 24.4613 85.6677 25.4373 85.0704 26.12C84.473 26.8027 83.625 27.144 82.5264 27.144C81.4917 27.144 80.6917 26.824 80.1264 26.184C79.5717 25.5333 79.2944 24.616 79.2944 23.432C79.2944 22.1627 79.593 21.1867 80.1904 20.504C80.7877 19.8213 81.6357 19.48 82.7344 19.48ZM82.6384 20.616C81.4224 20.616 80.8144 21.4373 80.8144 23.08C80.8144 24.0827 80.9637 24.824 81.2624 25.304C81.561 25.784 82.0197 26.024 82.6384 26.024C83.2464 26.024 83.6997 25.8213 83.9984 25.416C84.297 25.0107 84.4464 24.392 84.4464 23.56C84.4464 22.5573 84.297 21.816 83.9984 21.336C83.6997 20.856 83.2464 20.616 82.6384 20.616ZM93.0116 23.384L88.5156 23.4C88.5263 24.2107 88.7236 24.8293 89.1076 25.256C89.4916 25.672 90.0356 25.88 90.7396 25.88C91.4756 25.88 92.1956 25.6613 92.8996 25.224L93.0596 25.32L92.8196 26.632C92.041 26.9733 91.2836 27.144 90.5476 27.144C89.449 27.144 88.585 26.808 87.9556 26.136C87.337 25.4533 87.0276 24.5253 87.0276 23.352C87.0276 22.168 87.337 21.2293 87.9556 20.536C88.5743 19.8427 89.4116 19.496 90.4676 19.496C91.3636 19.496 92.0516 19.7413 92.5316 20.232C93.0223 20.7227 93.2676 21.416 93.2676 22.312C93.2676 22.5573 93.241 22.8507 93.1876 23.192L93.0116 23.384ZM91.7956 22.12C91.7956 21.6187 91.6783 21.24 91.4436 20.984C91.2196 20.728 90.889 20.6 90.4516 20.6C89.961 20.6 89.5556 20.76 89.2356 21.08C88.9156 21.3893 88.7023 21.832 88.5956 22.408L91.7636 22.344L91.7956 22.12ZM98.132 19.624H99.748L100.1 20.728L101.396 24.36H101.508L102.916 20.728L103.284 19.624H104.868L105.556 27H104.26L104.132 24.696L103.86 21.752H103.748L101.94 26.216H100.82L99.156 21.752H99.06L98.756 24.488L98.564 27H97.332L98.132 19.624ZM110.453 19.48C111.488 19.48 112.282 19.8053 112.837 20.456C113.402 21.096 113.685 22.008 113.685 23.192C113.685 24.4613 113.386 25.4373 112.789 26.12C112.192 26.8027 111.344 27.144 110.245 27.144C109.21 27.144 108.41 26.824 107.845 26.184C107.29 25.5333 107.013 24.616 107.013 23.432C107.013 22.1627 107.312 21.1867 107.909 20.504C108.506 19.8213 109.354 19.48 110.453 19.48ZM110.357 20.616C109.141 20.616 108.533 21.4373 108.533 23.08C108.533 24.0827 108.682 24.824 108.981 25.304C109.28 25.784 109.738 26.024 110.357 26.024C110.965 26.024 111.418 25.8213 111.717 25.416C112.016 25.0107 112.165 24.392 112.165 23.56C112.165 22.5573 112.016 21.816 111.717 21.336C111.418 20.856 110.965 20.616 110.357 20.616ZM120.478 23.768L120.542 27H118.942L118.99 23.912L118.974 20.712H117.294L117.23 21.24C117.07 22.7333 116.889 23.8853 116.686 24.696C116.494 25.5067 116.249 26.0987 115.95 26.472C115.662 26.8347 115.278 27.0587 114.798 27.144L114.414 27.16L114.158 25.912C114.553 25.784 114.862 25.5653 115.086 25.256C115.31 24.936 115.491 24.4507 115.63 23.8C115.769 23.1493 115.897 22.2053 116.014 20.968L116.158 19.656L116.142 19.624H120.558L120.478 23.768ZM125.734 19.48C126.769 19.48 127.564 19.8053 128.118 20.456C128.684 21.096 128.966 22.008 128.966 23.192C128.966 24.4613 128.668 25.4373 128.07 26.12C127.473 26.8027 126.625 27.144 125.526 27.144C124.492 27.144 123.692 26.824 123.126 26.184C122.572 25.5333 122.294 24.616 122.294 23.432C122.294 22.1627 122.593 21.1867 123.19 20.504C123.788 19.8213 124.636 19.48 125.734 19.48ZM125.638 20.616C124.422 20.616 123.814 21.4373 123.814 23.08C123.814 24.0827 123.964 24.824 124.262 25.304C124.561 25.784 125.02 26.024 125.638 26.024C126.246 26.024 126.7 25.8213 126.998 25.416C127.297 25.0107 127.446 24.392 127.446 23.56C127.446 22.5573 127.297 21.816 126.998 21.336C126.7 20.856 126.246 20.616 125.638 20.616ZM130.639 23.912L130.591 19.736L132.191 19.592L132.127 23.768L132.175 27H130.575L130.639 23.912ZM133.903 22.984C134.799 24.2213 135.769 25.464 136.815 26.712L136.799 26.904C136.521 26.9787 136.223 27.032 135.903 27.064C135.583 27.1067 135.391 27.1333 135.327 27.144L135.167 27.08C134.004 25.608 133.06 24.2907 132.335 23.128V23.016L134.495 20.328L134.895 19.624H136.607L133.903 22.984ZM140.719 19.48C141.753 19.48 142.548 19.8053 143.103 20.456C143.668 21.096 143.951 22.008 143.951 23.192C143.951 24.4613 143.652 25.4373 143.055 26.12C142.457 26.8027 141.609 27.144 140.511 27.144C139.476 27.144 138.676 26.824 138.111 26.184C137.556 25.5333 137.279 24.616 137.279 23.432C137.279 22.1627 137.577 21.1867 138.175 20.504C138.772 19.8213 139.62 19.48 140.719 19.48ZM140.623 20.616C139.407 20.616 138.799 21.4373 138.799 23.08C138.799 24.0827 138.948 24.824 139.247 25.304C139.545 25.784 140.004 26.024 140.623 26.024C141.231 26.024 141.684 25.8213 141.983 25.416C142.281 25.0107 142.431 24.392 142.431 23.56C142.431 22.5573 142.281 21.816 141.983 21.336C141.684 20.856 141.231 20.616 140.623 20.616Z"/>
<path d="M215.491 19.096L215.411 23.688L215.475 27H214.195L214.275 23.848L214.259 20.424L212.195 21L212.067 20.936V19.928L215.299 18.968L215.491 19.096ZM221.711 18.936C222.788 18.936 223.62 19.288 224.207 19.992C224.804 20.6853 225.103 21.6773 225.103 22.968C225.103 24.2907 224.793 25.3147 224.175 26.04C223.556 26.7547 222.681 27.112 221.551 27.112C220.463 27.112 219.62 26.7653 219.023 26.072C218.436 25.3787 218.143 24.3973 218.143 23.128C218.143 21.784 218.452 20.7493 219.071 20.024C219.689 19.2987 220.569 18.936 221.711 18.936ZM221.599 20.104C220.788 20.104 220.175 20.3493 219.759 20.84C219.353 21.3307 219.151 22.0613 219.151 23.032C219.151 24.0133 219.359 24.7547 219.775 25.256C220.191 25.7467 220.804 25.992 221.615 25.992C222.425 25.992 223.039 25.752 223.455 25.272C223.881 24.7813 224.095 24.0613 224.095 23.112C224.095 22.12 223.881 21.3733 223.455 20.872C223.039 20.36 222.42 20.104 221.599 20.104ZM234.068 19.752L233.972 20.6L232.308 20.568H231.028L230.996 23.784L231.044 27H229.796L229.86 23.896L229.812 19.672H233.988L234.068 19.752Z"/>
<path d="M20.4813 17.45C20.7401 17.45 20.95 17.2401 20.95 16.9812C20.95 16.7223 20.7401 16.5125 20.4813 16.5125C20.2224 16.5125 20.0125 16.7223 20.0125 16.9812C20.0125 17.2401 20.2224 17.45 20.4813 17.45Z"/>
<path d="M23.4875 17.45C23.7464 17.45 23.9562 17.2401 23.9562 16.9812C23.9562 16.7223 23.7464 16.5125 23.4875 16.5125C23.2286 16.5125 23.0187 16.7223 23.0187 16.9812C23.0187 17.2401 23.2286 17.45 23.4875 17.45Z"/>
<path d="M21.9813 19.4187C22.2401 19.4187 22.45 19.2088 22.45 18.95C22.45 18.6911 22.2401 18.4812 21.9813 18.4812C21.7224 18.4812 21.5125 18.6911 21.5125 18.95C21.5125 19.2088 21.7224 19.4187 21.9813 19.4187Z"/>
<path d="M24.9875 19.4187C25.2464 19.4187 25.4562 19.2088 25.4562 18.95C25.4562 18.6911 25.2464 18.4812 24.9875 18.4812C24.7286 18.4812 24.5187 18.6911 24.5187 18.95C24.5187 19.2088 24.7286 19.4187 24.9875 19.4187Z"/>
<path d="M15.9375 19.4187C16.1964 19.4187 16.4062 19.2088 16.4062 18.95C16.4062 18.6911 16.1964 18.4812 15.9375 18.4812C15.6786 18.4812 15.4688 18.6911 15.4688 18.95C15.4688 19.2088 15.6786 19.4187 15.9375 19.4187Z"/>
<path d="M18.975 19.4187C19.2339 19.4187 19.4437 19.2088 19.4437 18.95C19.4437 18.6911 19.2339 18.4812 18.975 18.4812C18.7161 18.4812 18.5062 18.6911 18.5062 18.95C18.5062 19.2088 18.7161 19.4187 18.975 19.4187Z"/>
<path d="M21.9813 15.475C22.2401 15.475 22.45 15.2651 22.45 15.0062C22.45 14.7473 22.2401 14.5375 21.9813 14.5375C21.7224 14.5375 21.5125 14.7473 21.5125 15.0062C21.5125 15.2651 21.7224 15.475 21.9813 15.475Z"/>
<path d="M18.975 15.475C19.2339 15.475 19.4437 15.2651 19.4437 15.0062C19.4437 14.7473 19.2339 14.5375 18.975 14.5375C18.7161 14.5375 18.5062 14.7473 18.5062 15.0062C18.5062 15.2651 18.7161 15.475 18.975 15.475Z"/>
<path d="M17.5062 17.45C17.7651 17.45 17.975 17.2401 17.975 16.9812C17.975 16.7223 17.7651 16.5125 17.5062 16.5125C17.2473 16.5125 17.0375 16.7223 17.0375 16.9812C17.0375 17.2401 17.2473 17.45 17.5062 17.45Z"/>
<path d="M42.525 20.0188H38.0563C37.7938 20.0188 37.5875 20.2312 37.5875 20.4875C37.5875 20.75 37.8 20.9563 38.0563 20.9563H42.525C42.8188 20.9563 43.0563 21.1938 43.0563 21.4875V21.6438C43.0563 21.9062 42.8688 22.125 42.6125 22.1687L28.4188 24.5312C28.1938 24.5688 28.025 24.7625 28.025 24.9937V27.5C28.025 29.45 26.4375 31.0375 24.4875 31.0375H16.4688C14.5188 31.0375 12.9313 29.45 12.9313 27.5V20.9563H35.7438C36.0063 20.9563 36.2125 20.7438 36.2125 20.4875C36.2125 20.225 36 20.0188 35.7438 20.0188H28.8063C28.5375 19.375 27.8375 17.8063 26.7438 16.2125C24.8563 13.4563 22.6875 12 20.4813 12C18.275 12 16.1 13.4563 14.2063 16.2125C12.8125 18.2375 12.0563 20.2375 12.025 20.3188V20.325C12.0188 20.3375 12.0188 20.35 12.0125 20.3625C12.0125 20.3688 12.0125 20.3687 12.0063 20.375C12 20.3875 12 20.4 12 20.4187C12 20.425 12 20.425 12 20.4312C12 20.45 12 20.4688 12 20.4812V27.5C12 29.9688 14.0063 31.975 16.475 31.975H24.4938C26.9625 31.975 28.9688 29.9688 28.9688 27.5V25.3938L42.7688 23.0938C43.4813 22.975 44 22.3625 44 21.6438V21.4875C43.9938 20.675 43.3313 20.0188 42.525 20.0188ZM20.4813 12.9375C24.3125 12.9375 26.9688 18.1687 27.7938 20.0125H13.1688C13.9875 18.1687 16.6438 12.9375 20.4813 12.9375Z"/>
</symbol>

<defs>



</defs>
</svg>
