<svg  fill="none" xmlns="http://www.w3.org/2000/svg">

<symbol id="hamburger__menu">
    <path d="M24 0H2.06335C0.868778 0 0 0.868778 0 2.06335V2.38914C0 3.47511 0.868778 4.34389 2.06335 4.34389H24.1086C25.1946 4.34389 26.1719 3.47511 26.1719 2.28054V2.06335C26.0633 0.868778 25.1946 0 24 0Z"/>
    <path d="M24 9.77374H2.06335C0.868778 9.77374 0 10.7511 0 11.8371V12.1629C0 13.2489 0.868778 14.2262 2.06335 14.2262H24.1086C25.1946 14.2262 26.1719 13.3575 26.1719 12.1629V11.8371C26.0633 10.7511 25.1946 9.77374 24 9.77374Z"/>
    <path d="M24 19.5475H2.06335C0.977376 19.5475 0 20.4163 0 21.6109V21.9367C0 23.0226 0.868778 24 2.06335 24H24.1086C25.1946 24 26.1719 23.1312 26.1719 21.9367V21.6109C26.0633 20.5249 25.1946 19.5475 24 19.5475Z"/>
</symbol>

<symbol id="composition">
<path d="M66.6903 19.1641L60.8069 13.2789C59.9858 12.4575 58.8943 12 57.7301 12C56.5659 12 55.4641 12.4575 54.6429 13.2789C53.7802 14.142 53.3436 15.2961 53.3644 16.4607C52.2002 16.4399 51.0464 16.8766 50.1837 17.7396C49.3209 18.6026 48.8843 19.7568 48.9051 20.9213C47.7409 20.8901 46.5871 21.3373 45.7244 22.2003C44.8616 23.0633 44.425 24.2175 44.4458 25.382C43.2816 25.3612 42.1278 25.7979 41.2651 26.6609L26.7127 41.2179L22.3157 45.6162C22.191 45.7306 22.0974 45.8865 22.0455 46.0529C22.0455 46.0737 22.0351 46.0841 22.0351 46.1049C21.9727 46.344 21.9935 46.5832 22.0974 46.7911C22.1182 46.8431 22.1494 46.8847 22.1702 46.9367C22.3053 47.1343 22.5028 47.2902 22.7523 47.363L26.3177 48.382L27.3363 51.9485C27.4299 52.2916 27.7001 52.5619 28.0536 52.6659L31.6189 53.6849L32.6376 57.2514C32.7103 57.5009 32.8663 57.6985 33.0741 57.8336C33.1157 57.8648 33.1573 57.8856 33.2093 57.9064C33.3444 57.9688 33.4899 58 33.6355 58C33.729 58 33.8226 57.9896 33.9265 57.9584C34.1136 57.9064 34.2695 57.8128 34.3943 57.6777L38.7912 53.2794L45.1007 46.9679C45.2254 47.0927 45.371 47.1759 45.5373 47.2278C45.9011 47.3318 46.2961 47.2382 46.5663 46.9679L54.0816 39.4503C54.487 39.0448 54.487 38.3897 54.0816 37.9842L53.9881 37.8906C54.4247 37.1731 54.6325 36.3517 54.6222 35.5303C55.7863 35.5511 56.9401 35.1144 57.8029 34.2514C58.6656 33.3883 59.1022 32.2342 59.0814 31.0696C60.2456 31.1008 61.3994 30.6537 62.2622 29.7907C63.1249 28.9277 63.5615 27.7735 63.5407 26.609C64.7049 26.6297 65.8587 26.193 66.7215 25.33C67.5426 24.5086 68 23.4064 68 22.2419C67.9688 21.0877 67.5218 19.9855 66.6903 19.1641ZM34.1344 54.9638L33.4484 52.5411C33.3548 52.198 33.0845 51.9277 32.7311 51.8237L29.1658 50.8151L28.1471 47.2486C28.0536 46.9055 27.7833 46.6352 27.4299 46.5312L25.0079 45.8449L27.4299 43.4222L36.5459 52.5411L34.1344 54.9638ZM46.4208 44.1501L43.9781 32.8476C43.8533 32.2862 43.3024 31.9326 42.7411 32.047C42.1798 32.1718 41.8264 32.7229 41.9407 33.2844L44.4043 44.6908L38.022 51.075L28.9059 41.9561L41.9927 28.8653L51.8468 38.7224L46.4208 44.1501ZM65.2246 23.8639C64.5282 24.5606 63.468 24.7373 62.5948 24.2902C62.1998 24.0927 61.7113 24.1655 61.3994 24.4878C61.0876 24.8101 61.0044 25.2884 61.2019 25.6835C61.6385 26.5674 61.4618 27.6279 60.7758 28.3142C60.0897 29.0005 59.0191 29.1876 58.1459 28.7405C57.7509 28.5429 57.2624 28.6157 56.9505 28.9381C56.6387 29.25 56.5555 29.7387 56.753 30.1338C57.1896 31.0176 57.0129 32.0782 56.3269 32.7645C55.6304 33.4611 54.5702 33.6379 53.697 33.1908C53.302 32.9932 52.8135 33.066 52.5017 33.3883C52.1898 33.7003 52.1067 34.189 52.3042 34.5841C52.5744 35.1352 52.616 35.7486 52.4289 36.3101L43.6662 27.5448C44.2276 27.368 44.8408 27.3992 45.3917 27.6695C45.7867 27.8671 46.2753 27.7943 46.5871 27.472C46.899 27.1496 46.9821 26.6713 46.7846 26.2762C46.348 25.3924 46.5248 24.3318 47.2108 23.6456C47.8968 22.9593 48.9675 22.7722 49.8406 23.2193C50.2356 23.4168 50.7242 23.344 51.036 23.0217C51.3479 22.7098 51.431 22.2211 51.2335 21.8259C50.7969 20.9421 50.9736 19.8816 51.6597 19.1953C52.3561 18.4986 53.4164 18.3219 54.2895 18.769C54.6845 18.9665 55.1731 18.8938 55.4849 18.5714C55.7967 18.2595 55.8799 17.7708 55.6824 17.3757C55.2458 16.4919 55.4225 15.4313 56.1086 14.745C56.5452 14.3083 57.1169 14.0796 57.7301 14.0796C58.3434 14.0796 58.9151 14.3187 59.3517 14.745L65.2246 20.6302C65.6612 21.0669 65.8899 21.6388 65.8899 22.2523C65.8899 22.8553 65.6508 23.4376 65.2246 23.8639Z"/>
<path d="M26.9369 65.8641C27.815 65.8641 28.6044 66.0463 29.305 66.4106L28.9687 67.994L28.8146 68.064C28.5343 67.8679 28.2261 67.7137 27.8898 67.6016C27.5535 67.4895 27.2078 67.4335 26.8529 67.4335C25.3676 67.4335 24.625 68.4097 24.625 70.362C24.625 71.4176 24.8165 72.2116 25.1995 72.7441C25.5918 73.2672 26.1616 73.5287 26.9089 73.5287C27.2546 73.5287 27.6095 73.4774 27.9738 73.3746C28.3475 73.2625 28.6838 73.113 28.9827 72.9262L29.1509 73.0243L28.9967 74.6357C28.2868 74.9626 27.5395 75.1261 26.7548 75.1261C25.4096 75.1261 24.3821 74.7338 23.6721 73.9491C22.9715 73.1644 22.6212 72.0388 22.6212 70.5722C22.6212 69.0776 22.9949 67.9192 23.7422 67.0972C24.4988 66.2751 25.5638 65.8641 26.9369 65.8641ZM34.6539 65.8501C35.9243 65.8501 36.9005 66.2378 37.5824 67.0131C38.2737 67.7791 38.6193 68.8721 38.6193 70.2919C38.6193 71.8426 38.2456 73.0383 37.4983 73.879C36.751 74.7198 35.6954 75.1401 34.3316 75.1401C33.0705 75.1401 32.0943 74.7478 31.4031 73.9631C30.7212 73.1691 30.3802 72.0481 30.3802 70.6002C30.3802 69.0776 30.7492 67.9052 31.4872 67.0832C32.2345 66.2611 33.29 65.8501 34.6539 65.8501ZM34.4857 67.3774C33.7384 67.3774 33.1966 67.611 32.8603 68.078C32.524 68.5451 32.3559 69.3064 32.3559 70.362C32.3559 71.567 32.5194 72.4264 32.8463 72.9402C33.1826 73.454 33.7338 73.7109 34.4998 73.7109C35.2471 73.7109 35.7889 73.4774 36.1252 73.0103C36.4614 72.5339 36.6296 71.7585 36.6296 70.6843C36.6296 69.4979 36.4614 68.6525 36.1252 68.1481C35.7982 67.6343 35.2517 67.3774 34.4857 67.3774ZM44.0826 65.8641C44.9607 65.8641 45.75 66.0463 46.4506 66.4106L46.1143 67.994L45.9602 68.064C45.68 67.8679 45.3717 67.7137 45.0354 67.6016C44.6991 67.4895 44.3535 67.4335 43.9985 67.4335C42.5132 67.4335 41.7706 68.4097 41.7706 70.362C41.7706 71.4176 41.9621 72.2116 42.3451 72.7441C42.7374 73.2672 43.3073 73.5287 44.0546 73.5287C44.4002 73.5287 44.7552 73.4774 45.1195 73.3746C45.4931 73.2625 45.8294 73.113 46.1284 72.9262L46.2965 73.0243L46.1424 74.6357C45.4324 74.9626 44.6851 75.1261 43.9004 75.1261C42.5553 75.1261 41.5277 74.7338 40.8178 73.9491C40.1172 73.1644 39.7669 72.0388 39.7669 70.5722C39.7669 69.0776 40.1405 67.9192 40.8878 67.0972C41.6445 66.2751 42.7094 65.8641 44.0826 65.8641ZM53.7192 66.1304L53.6071 67.5456L51.9116 67.4615H51.3511L51.2811 72.1415L51.3651 75H49.4595L49.5576 72.3097L49.4875 67.4615H48.927L47.2036 67.5456L47.0775 67.3914L47.2036 65.9762H53.6071L53.7192 66.1304ZM61.4165 75H59.4829L59.2587 73.823L59.0205 72.9823L57.2549 72.9402L55.6996 72.9823L55.4614 73.7249L55.2232 75H53.3456L56.4002 65.9762H58.6561L61.4165 75ZM58.6141 71.511L57.5492 67.7558H57.4231L56.19 71.511L57.3951 71.539L58.6141 71.511ZM67.6024 70.32C68.2189 70.4694 68.672 70.7216 68.9616 71.0766C69.2605 71.4222 69.41 71.88 69.41 72.4498C69.41 74.1966 68.0415 75.0701 65.3044 75.0701C64.5011 75.0701 63.679 75.0467 62.8383 75L62.9364 72.3097L62.8383 65.9762L66.0471 65.9622C66.9719 65.9622 67.6912 66.1584 68.2049 66.5507C68.7187 66.9337 68.9756 67.4895 68.9756 68.2182C68.9756 68.7039 68.8542 69.1289 68.6113 69.4933C68.3777 69.8576 68.0415 70.1331 67.6024 70.32ZM67.0279 68.4704C67.0279 68.0593 66.9065 67.7698 66.6636 67.6016C66.4207 67.4241 65.9957 67.3354 65.3885 67.3354H64.7019L64.6599 69.7875L65.977 69.8295C66.332 69.7361 66.5935 69.582 66.7617 69.3671C66.9392 69.1523 67.0279 68.8534 67.0279 68.4704ZM65.6267 73.7109C66.2152 73.7109 66.6683 73.5941 66.9859 73.3606C67.3128 73.1271 67.4763 72.7908 67.4763 72.3517C67.4763 71.6885 67.0466 71.2775 66.1872 71.1187L64.6319 71.1467L64.6178 72.1415L64.6599 73.6548C64.9868 73.6922 65.3091 73.7109 65.6267 73.7109Z"/>
</symbol>

<symbol id="seaweed">
<path d="M68.016 27H66.544L66.336 23.88L65.856 19.24H65.744L63.104 25.864H61.792L59.344 19.24H59.2L58.72 23.736L58.464 27H57.072L58.144 16.728H60.032L60.512 18.264L62.48 23.72H62.608L64.688 18.216L65.168 16.728H67.04L68.016 27ZM72.8438 19.48C73.8784 19.48 74.6731 19.8053 75.2278 20.456C75.7931 21.096 76.0758 22.008 76.0758 23.192C76.0758 24.4613 75.7771 25.4373 75.1798 26.12C74.5824 26.8027 73.7344 27.144 72.6358 27.144C71.6011 27.144 70.8011 26.824 70.2358 26.184C69.6811 25.5333 69.4038 24.616 69.4038 23.432C69.4038 22.1627 69.7024 21.1867 70.2998 20.504C70.8971 19.8213 71.7451 19.48 72.8438 19.48ZM72.7478 20.616C71.5318 20.616 70.9238 21.4373 70.9238 23.08C70.9238 24.0827 71.0731 24.824 71.3718 25.304C71.6704 25.784 72.1291 26.024 72.7478 26.024C73.3558 26.024 73.8091 25.8213 74.1078 25.416C74.4064 25.0107 74.5558 24.392 74.5558 23.56C74.5558 22.5573 74.4064 21.816 74.1078 21.336C73.8091 20.856 73.3558 20.616 72.7478 20.616ZM81.393 19.544C82.3103 19.544 83.0143 19.8533 83.505 20.472C84.0063 21.08 84.257 21.9547 84.257 23.096C84.257 24.3867 83.9423 25.384 83.313 26.088C82.6837 26.792 81.7877 27.144 80.625 27.144C80.2517 27.144 79.8357 27.1013 79.377 27.016L79.425 29.96H77.809L77.921 23.912L77.809 19.736L79.377 19.592L79.361 20.648H79.473C79.8143 20.3493 80.129 20.12 80.417 19.96C80.705 19.8 81.0303 19.6613 81.393 19.544ZM80.753 26.024C81.393 26.024 81.8837 25.7947 82.225 25.336C82.5663 24.8773 82.737 24.2213 82.737 23.368C82.737 22.5573 82.5983 21.9387 82.321 21.512C82.0437 21.0747 81.6437 20.856 81.121 20.856C80.833 20.856 80.545 20.936 80.257 21.096C79.9797 21.2453 79.6757 21.4853 79.345 21.816L79.329 23.768L79.361 25.672C79.8623 25.9067 80.3263 26.024 80.753 26.024ZM86.0123 25.272C86.2789 25.272 86.4869 25.352 86.6363 25.512C86.7856 25.6613 86.8603 25.8747 86.8603 26.152C86.8603 26.44 86.7803 26.6693 86.6203 26.84C86.4603 27.0107 86.2416 27.096 85.9643 27.096C85.6869 27.096 85.4683 27.016 85.3083 26.856C85.1589 26.696 85.0843 26.4773 85.0843 26.2C85.0843 25.9227 85.1643 25.6987 85.3243 25.528C85.4949 25.3573 85.7243 25.272 86.0123 25.272ZM95.799 23.176C96.8443 23.4107 97.367 23.9867 97.367 24.904C97.367 25.64 97.0737 26.184 96.487 26.536C95.911 26.8773 95.0523 27.048 93.911 27.048C93.175 27.048 92.3963 27.032 91.575 27L91.639 23.912L91.591 19.624L94.455 19.608C95.287 19.608 95.927 19.768 96.375 20.088C96.823 20.3973 97.047 20.8453 97.047 21.432C97.047 21.816 96.9403 22.1573 96.727 22.456C96.5137 22.7547 96.2043 22.9947 95.799 23.176ZM95.559 21.624C95.559 21.2827 95.4257 21.0267 95.159 20.856C94.8923 20.6853 94.4817 20.6 93.927 20.6C93.575 20.6 93.303 20.6053 93.111 20.616L93.063 22.776L94.439 22.824C94.8017 22.7493 95.079 22.6107 95.271 22.408C95.463 22.2053 95.559 21.944 95.559 21.624ZM94.087 26.088C94.663 26.088 95.1057 25.9813 95.415 25.768C95.7243 25.5547 95.879 25.2453 95.879 24.84C95.879 24.232 95.463 23.8747 94.631 23.768L93.047 23.784L93.079 26.04C93.4203 26.072 93.7563 26.088 94.087 26.088ZM101.938 19.48C102.972 19.48 103.767 19.8053 104.322 20.456C104.887 21.096 105.17 22.008 105.17 23.192C105.17 24.4613 104.871 25.4373 104.274 26.12C103.676 26.8027 102.828 27.144 101.73 27.144C100.695 27.144 99.8948 26.824 99.3295 26.184C98.7748 25.5333 98.4975 24.616 98.4975 23.432C98.4975 22.1627 98.7962 21.1867 99.3935 20.504C99.9908 19.8213 100.839 19.48 101.938 19.48ZM101.842 20.616C100.626 20.616 100.018 21.4373 100.018 23.08C100.018 24.0827 100.167 24.824 100.466 25.304C100.764 25.784 101.223 26.024 101.842 26.024C102.45 26.024 102.903 25.8213 103.202 25.416C103.5 25.0107 103.65 24.392 103.65 23.56C103.65 22.5573 103.5 21.816 103.202 21.336C102.903 20.856 102.45 20.616 101.842 20.616ZM113.339 25.832V28.76L112.267 28.856L112.075 27H106.971L106.779 28.76L105.707 28.856V25.832H106.299C106.619 25.6293 106.869 25.3573 107.051 25.016C107.232 24.6747 107.376 24.2 107.483 23.592C107.6 22.9733 107.717 22.0987 107.835 20.968L107.979 19.624H112.347L112.283 23.768L112.315 25.832H113.339ZM110.843 23.912L110.795 20.696H109.131L109.067 21.224C108.939 22.5787 108.773 23.6027 108.571 24.296C108.379 24.9787 108.101 25.4907 107.739 25.832H110.811L110.843 23.912ZM117.875 19.48C118.91 19.48 119.704 19.8053 120.259 20.456C120.824 21.096 121.107 22.008 121.107 23.192C121.107 24.4613 120.808 25.4373 120.211 26.12C119.614 26.8027 118.766 27.144 117.667 27.144C116.632 27.144 115.832 26.824 115.267 26.184C114.712 25.5333 114.435 24.616 114.435 23.432C114.435 22.1627 114.734 21.1867 115.331 20.504C115.928 19.8213 116.776 19.48 117.875 19.48ZM117.779 20.616C116.563 20.616 115.955 21.4373 115.955 23.08C115.955 24.0827 116.104 24.824 116.403 25.304C116.702 25.784 117.16 26.024 117.779 26.024C118.387 26.024 118.84 25.8213 119.139 25.416C119.438 25.0107 119.587 24.392 119.587 23.56C119.587 22.5573 119.438 21.816 119.139 21.336C118.84 20.856 118.387 20.616 117.779 20.616ZM126.424 19.544C127.342 19.544 128.046 19.8533 128.536 20.472C129.038 21.08 129.288 21.9547 129.288 23.096C129.288 24.3867 128.974 25.384 128.344 26.088C127.715 26.792 126.819 27.144 125.656 27.144C125.283 27.144 124.867 27.1013 124.408 27.016L124.456 29.96H122.84L122.952 23.912L122.84 19.736L124.408 19.592L124.392 20.648H124.504C124.846 20.3493 125.16 20.12 125.448 19.96C125.736 19.8 126.062 19.6613 126.424 19.544ZM125.784 26.024C126.424 26.024 126.915 25.7947 127.256 25.336C127.598 24.8773 127.768 24.2213 127.768 23.368C127.768 22.5573 127.63 21.9387 127.352 21.512C127.075 21.0747 126.675 20.856 126.152 20.856C125.864 20.856 125.576 20.936 125.288 21.096C125.011 21.2453 124.707 21.4853 124.376 21.816L124.36 23.768L124.392 25.672C124.894 25.9067 125.358 26.024 125.784 26.024ZM133.859 19.48C134.894 19.48 135.689 19.8053 136.243 20.456C136.809 21.096 137.091 22.008 137.091 23.192C137.091 24.4613 136.793 25.4373 136.195 26.12C135.598 26.8027 134.75 27.144 133.651 27.144C132.617 27.144 131.817 26.824 131.251 26.184C130.697 25.5333 130.419 24.616 130.419 23.432C130.419 22.1627 130.718 21.1867 131.315 20.504C131.913 19.8213 132.761 19.48 133.859 19.48ZM133.763 20.616C132.547 20.616 131.939 21.4373 131.939 23.08C131.939 24.0827 132.089 24.824 132.387 25.304C132.686 25.784 133.145 26.024 133.763 26.024C134.371 26.024 134.825 25.8213 135.123 25.416C135.422 25.0107 135.571 24.392 135.571 23.56C135.571 22.5573 135.422 21.816 135.123 21.336C134.825 20.856 134.371 20.616 133.763 20.616ZM141.561 19.48C141.902 19.48 142.249 19.5173 142.601 19.592C142.953 19.6667 143.262 19.768 143.529 19.896L143.257 21.256L143.097 21.32C142.531 20.9893 142.009 20.824 141.529 20.824C140.963 20.824 140.521 21.0373 140.201 21.464C139.881 21.8907 139.721 22.488 139.721 23.256C139.721 24.0773 139.886 24.7173 140.217 25.176C140.547 25.624 141.017 25.848 141.625 25.848C142.158 25.848 142.729 25.688 143.337 25.368L143.481 25.464L143.321 26.776C142.67 27.0213 142.019 27.144 141.369 27.144C140.366 27.144 139.582 26.8133 139.017 26.152C138.462 25.48 138.185 24.5573 138.185 23.384C138.185 22.168 138.483 21.2133 139.081 20.52C139.678 19.8267 140.505 19.48 141.561 19.48ZM150.494 23.768L150.558 27H148.958L149.006 23.912L148.99 20.712H147.31L147.246 21.24C147.086 22.7333 146.904 23.8853 146.702 24.696C146.51 25.5067 146.264 26.0987 145.966 26.472C145.678 26.8347 145.294 27.0587 144.814 27.144L144.43 27.16L144.174 25.912C144.568 25.784 144.878 25.5653 145.102 25.256C145.326 24.936 145.507 24.4507 145.646 23.8C145.784 23.1493 145.912 22.2053 146.03 20.968L146.174 19.656L146.158 19.624H150.574L150.494 23.768ZM152.889 23.912L152.825 19.656L154.409 19.592L154.377 24.744H154.473L157.433 19.624H159.033L158.969 23.72L159.033 27H157.449L157.497 24.024L157.513 21.784H157.401L154.393 27H152.825L152.889 23.912Z" fill="black"/>
<path d="M217.256 19.096L217.176 23.688L217.24 27H215.96L216.04 23.848L216.024 20.424L213.96 21L213.832 20.936V19.928L217.064 18.968L217.256 19.096ZM225.156 19.064L225.028 20.072L224.932 20.168L223.764 20.072H221.396L221.332 22.568L222.34 22.776C223.332 22.9893 224.036 23.2987 224.452 23.704C224.868 24.1093 225.076 24.6427 225.076 25.304C225.076 25.944 224.911 26.5093 224.58 27C224.26 27.4907 223.807 27.8747 223.22 28.152C222.644 28.4293 221.988 28.568 221.252 28.568C220.804 28.568 220.303 28.5147 219.748 28.408L219.652 27.288L219.764 27.176C220.362 27.432 220.943 27.56 221.508 27.56C222.234 27.56 222.81 27.3733 223.236 27C223.663 26.616 223.876 26.12 223.876 25.512C223.876 25.032 223.711 24.648 223.38 24.36C223.06 24.072 222.532 23.8587 221.796 23.72L220.436 23.464L220.324 23.352L220.404 19.176L220.612 19L221.46 19.032H223.62L225.092 18.968L225.156 19.064ZM234.068 19.752L233.972 20.6L232.308 20.568H231.028L230.996 23.784L231.044 27H229.796L229.86 23.896L229.812 19.672H233.988L234.068 19.752Z" fill="black"/>
<path d="M33.625 11C33.3672 11 33.1562 11.2109 33.1562 11.4688C33.1562 11.7266 33.3672 11.9375 33.625 11.9375C33.8828 11.9375 34.0938 11.7266 34.0938 11.4688C34.0938 11.2109 33.8828 11 33.625 11Z" fill="black"/>
<path d="M39.5312 32.5625H36.8922C36.9906 32.3891 37.0469 32.1922 37.0469 31.9813V30.8844C37.0469 30.7156 37.1687 30.5984 37.3422 30.5984H38.7531C39.4422 30.5984 40 30.0313 40 29.3328C40 27.9969 39.4797 26.7453 38.5375 25.7984C37.7453 25.0063 36.4094 25.5828 36.4094 26.6797C36.4094 26.8484 36.2734 26.9891 36.1 26.9891H34.6891C34.5344 26.9891 34.3844 27.0172 34.2438 27.0734L34.0984 26.675C34.0422 26.5156 34.1219 26.3375 34.2812 26.2813L35.3125 25.9063C35.9594 25.6719 36.2922 24.9547 36.0578 24.3078L35.6828 23.2766C35.6266 23.1172 35.7062 22.9391 35.8656 22.8828C36.9109 22.5031 36.9719 21.0547 35.9641 20.5812C34.7547 20.0187 33.4 19.9578 32.1437 20.4125C31.4969 20.6469 31.1641 21.3641 31.3984 22.0109L31.7734 23.0422C31.8297 23.2016 31.75 23.3797 31.5906 23.4359L30.9531 23.6656C30.9578 23.3422 30.8359 23.0188 30.5875 22.775L29.8094 21.9969C29.6875 21.875 29.6875 21.6828 29.8094 21.5609L30.5875 20.7828C31.075 20.2953 31.075 19.5078 30.5875 19.0203C29.65 18.0828 28.3984 17.5625 27.0625 17.5625C25.9422 17.5625 25.4031 18.9125 26.1812 19.6906C26.3031 19.8125 26.3031 20.0047 26.1812 20.1266L25.4031 20.9047C24.9156 21.3922 24.9156 22.1797 25.4031 22.6672L26.1812 23.4453C26.3031 23.5672 26.3031 23.7594 26.1812 23.8812L25.8906 24.1719C25.7547 24.0172 25.5813 23.8953 25.3797 23.8203L24.3484 23.4453C24.2688 23.4172 24.2078 23.3609 24.175 23.2859C24.1422 23.2109 24.1375 23.1266 24.1656 23.0516L24.5406 22.0203C24.775 21.3734 24.4422 20.6609 23.7953 20.4219C22.5438 19.9672 21.1844 20.0234 19.975 20.5906C18.9719 21.0594 19.0328 22.5078 20.0734 22.8875C20.2328 22.9438 20.3172 23.1219 20.2563 23.2813L19.8813 24.3125C19.6469 24.9594 19.9797 25.6719 20.6266 25.9109L21.6578 26.2859C21.8172 26.3422 21.9016 26.5203 21.8406 26.6797L21.6953 27.0734C21.5547 27.0172 21.4 26.9891 21.25 26.9891H19.8906C19.7219 26.9891 19.5813 26.8531 19.5813 26.6797C19.5813 25.5828 18.2453 25.0063 17.4531 25.7984C16.5344 26.7266 16 28.0203 16 29.3469C16 30.0359 16.5578 30.5938 17.2469 30.5938H18.6062C18.7797 30.5938 18.9062 30.7156 18.9062 30.8797V31.9766C18.9062 32.1875 18.9578 32.3844 19.0516 32.5578H16.4688C16.2109 32.5578 16 32.7688 16 33.0266C16 33.2844 16.2109 33.4953 16.4688 33.4953C17.3688 33.4953 38.2375 33.4953 39.5312 33.4953C39.7891 33.4953 40 33.2844 40 33.0266C40 32.7688 39.7891 32.5625 39.5312 32.5625ZM22.0375 32.5625C21.8172 32.3797 21.5406 32.2813 21.2547 32.2813H20.1578C19.9844 32.2813 19.8438 32.1453 19.8438 31.9813V30.8844C19.8438 30.1953 19.3 29.6609 18.6062 29.6609H17.2469C17.0781 29.6609 16.9375 29.525 16.9375 29.3516C16.9375 28.2688 17.3688 27.2188 18.1281 26.4641C18.3203 26.2719 18.6531 26.4078 18.6531 26.6797C18.6531 27.3688 19.2109 27.9266 19.9 27.9266L21.2594 27.9219C21.3531 27.9219 21.4422 27.9688 21.5031 28.0391C21.5172 28.0719 21.5359 28.1047 21.5594 28.1328C21.5734 28.1656 21.5781 28.2031 21.5781 28.2406V29.3281C21.5781 30.0266 22.1313 30.5938 22.8109 30.5938H23.9078C24.0766 30.5938 24.2031 30.7156 24.2031 30.8797V31.9766C24.2031 32.1875 24.2547 32.3844 24.3531 32.5578H22.0375V32.5625ZM26.5609 32.2813H25.4641C25.2906 32.2813 25.1453 32.1453 25.1453 31.9813V30.8844C25.1453 30.1953 24.6062 29.6609 23.9125 29.6609H22.8156C22.6562 29.6609 22.5203 29.5109 22.5203 29.3328V28.2359C22.5203 28.0859 22.4922 27.9406 22.4406 27.8047L22.7313 27.0031C22.9656 26.3563 22.6328 25.6438 21.9859 25.4047L20.9547 25.0297C20.7953 24.9734 20.7109 24.7953 20.7719 24.6359L21.1469 23.6047C21.3813 22.9578 21.0484 22.2453 20.4016 22.0063C20.1438 21.9125 20.125 21.5563 20.3781 21.4391C21.3625 20.9797 22.4641 20.9328 23.4813 21.3031C23.6406 21.3594 23.725 21.5375 23.6641 21.6969L23.2891 22.7281C23.1766 23.0422 23.1906 23.3797 23.3312 23.6797C23.4719 23.9797 23.7203 24.2094 24.0344 24.3219L25.0656 24.6969C25.1453 24.725 25.2063 24.7859 25.2437 24.8609C24.9344 25.3438 24.9906 25.9953 25.4125 26.4125L26.1906 27.1906C26.3125 27.3125 26.3125 27.5047 26.1906 27.6266L25.4125 28.4047C24.925 28.8922 24.925 29.6797 25.4125 30.1672L26.6406 31.3953C26.5562 31.6578 26.5563 31.9391 26.6547 32.2109L26.6828 32.2906C26.6406 32.2859 26.5984 32.2813 26.5609 32.2813ZM27.2453 30.6734L26.0688 29.4969C25.9469 29.375 25.9469 29.1828 26.0688 29.0609L26.8469 28.2828C27.3344 27.7953 27.3344 27.0078 26.8469 26.5203L26.0688 25.7422C25.9469 25.6203 25.9469 25.4281 26.0688 25.3063L26.8469 24.5281C27.3344 24.0406 27.3344 23.2531 26.8469 22.7656C26.1344 22.0156 25.9797 21.9922 25.9797 21.7719C25.9797 21.6875 26.0125 21.6125 26.0688 21.5563L26.8469 20.7781C27.3344 20.2906 27.3344 19.5031 26.8469 19.0156C26.6547 18.8234 26.7906 18.4906 27.0625 18.4906C28.1453 18.4906 29.1672 18.9125 29.9313 19.6813C30.0531 19.8031 30.0531 19.9953 29.9313 20.1172L29.1531 20.8953C28.6656 21.3828 28.6656 22.1703 29.1531 22.6578L29.9313 23.4359C30.0531 23.5578 30.0531 23.75 29.9313 23.8719L29.1531 24.65C28.6656 25.1375 28.6656 25.925 29.1531 26.4125L29.6922 26.9516L28.975 27.2141C28.6609 27.3266 28.4125 27.5563 28.2719 27.8563C28.1312 28.1563 28.1172 28.4938 28.2297 28.8078L28.6047 29.8391C28.6609 29.9984 28.5813 30.1766 28.4219 30.2328L27.3906 30.6078C27.3438 30.6266 27.2922 30.65 27.2453 30.6734ZM30.0156 25.9438L29.8187 25.7469C29.7062 25.6344 29.6969 25.4563 29.7953 25.3344C29.8187 25.4094 29.8141 25.3906 30.0156 25.9438ZM31.6328 30.3922L32.0078 31.4234C32.0641 31.5828 31.9844 31.7609 31.825 31.8172L30.7938 32.1922C30.5875 32.2672 30.4094 32.3938 30.2687 32.5625H27.7797L27.5312 31.8828C27.475 31.7234 27.5547 31.5453 27.7141 31.4891L28.7453 31.1141C29.3922 30.8797 29.725 30.1625 29.4906 29.5156L29.1156 28.4844C29.0875 28.4094 29.0922 28.325 29.125 28.25C29.1578 28.175 29.2234 28.1188 29.2984 28.0906L30.3297 27.7156C30.4891 27.6594 30.6297 27.5703 30.7516 27.4578L30.7562 27.4531C30.7609 27.4484 30.7656 27.4438 30.7703 27.4391C31.1219 27.0969 31.2438 26.5813 31.075 26.1219L30.7 25.0906C30.6438 24.9313 30.7234 24.7531 30.8828 24.6969L31.9141 24.3219C32.5609 24.0875 32.8937 23.375 32.6594 22.7234L32.2844 21.6922C32.2281 21.5328 32.3078 21.3547 32.4672 21.2984C33.4844 20.9281 34.5859 20.975 35.5703 21.4344C35.8188 21.5516 35.8047 21.9078 35.5469 22.0016C34.9 22.2359 34.5672 22.9484 34.8016 23.5953L35.1766 24.6266C35.2328 24.7859 35.1531 24.9641 34.9938 25.0203L33.9625 25.3953C33.3156 25.6297 32.9828 26.3469 33.2172 26.9938L33.5453 27.8891C33.55 27.9594 33.5734 28.0297 33.6109 28.0906C33.6297 28.2313 33.55 28.3672 33.4094 28.4188L32.3781 28.7938C31.7312 29.0328 31.3984 29.7453 31.6328 30.3922ZM36.1094 30.8797V31.9766C36.1094 32.15 35.9406 32.2297 35.7859 32.2297H34.6891C34.4125 32.2297 34.1359 32.3469 33.9016 32.5578H32.4156C32.875 32.2484 33.0906 31.6531 32.8891 31.1L32.5141 30.0688C32.4578 29.9094 32.5375 29.7313 32.6969 29.675L33.7281 29.3C34.3 29.0938 34.6141 28.5172 34.5344 27.9594C34.5812 27.9359 34.6328 27.9172 34.6844 27.9172H36.0953C36.7844 27.9172 37.3422 27.3641 37.3422 26.675C37.3422 26.3984 37.675 26.2625 37.8672 26.4594C38.6406 27.2234 39.0625 28.2453 39.0625 29.3281C39.0625 29.5016 38.9172 29.6563 38.7531 29.6563H37.3422C36.6484 29.6563 36.1094 30.1953 36.1094 30.8797Z" fill="black"/>
<path d="M30.3438 11.9375C29.3078 11.9375 28.4688 12.7766 28.4688 13.8125C28.4688 14.8484 29.3078 15.6875 30.3438 15.6875C31.3797 15.6875 32.2188 14.8484 32.2188 13.8125C32.2188 12.7766 31.3797 11.9375 30.3438 11.9375ZM30.3438 14.75C29.8281 14.75 29.4062 14.3281 29.4062 13.8125C29.4062 13.2969 29.8281 12.875 30.3438 12.875C30.8594 12.875 31.2812 13.2969 31.2812 13.8125C31.2812 14.3281 30.8594 14.75 30.3438 14.75Z" fill="black"/>
<path d="M32.6875 16.625C31.9141 16.625 31.2812 17.2578 31.2812 18.0312C31.2812 18.8047 31.9141 19.4375 32.6875 19.4375C33.4609 19.4375 34.0938 18.8047 34.0938 18.0312C34.0938 17.2578 33.4609 16.625 32.6875 16.625ZM32.6875 18.5C32.4297 18.5 32.2188 18.2891 32.2188 18.0312C32.2188 17.7734 32.4297 17.5625 32.6875 17.5625C32.9453 17.5625 33.1562 17.7734 33.1562 18.0312C33.1562 18.2891 32.9453 18.5 32.6875 18.5Z" fill="black"/>
</symbol>

<symbol id="oats">
<path d="M61.504 16.6C62.9227 16.6 64.016 17.0373 64.784 17.912C65.552 18.7867 65.936 20.0347 65.936 21.656C65.936 23.4053 65.5253 24.76 64.704 25.72C63.8827 26.6693 62.7147 27.144 61.2 27.144C59.792 27.144 58.704 26.696 57.936 25.8C57.1787 24.8933 56.8 23.6133 56.8 21.96C56.8 20.2427 57.2053 18.92 58.016 17.992C58.8373 17.064 60 16.6 61.504 16.6ZM61.376 17.944C60.4053 17.944 59.68 18.2587 59.2 18.888C58.7307 19.5067 58.496 20.4667 58.496 21.768C58.496 23.1867 58.7253 24.2267 59.184 24.888C59.6533 25.5387 60.3733 25.864 61.344 25.864C62.3253 25.864 63.0507 25.5493 63.52 24.92C63.9893 24.2907 64.224 23.3093 64.224 21.976C64.224 20.5787 63.9893 19.56 63.52 18.92C63.0613 18.2693 62.3467 17.944 61.376 17.944ZM72.1428 23.176C73.1881 23.4107 73.7108 23.9867 73.7108 24.904C73.7108 25.64 73.4174 26.184 72.8308 26.536C72.2548 26.8773 71.3961 27.048 70.2548 27.048C69.5188 27.048 68.7401 27.032 67.9188 27L67.9828 23.912L67.9348 19.624L70.7988 19.608C71.6308 19.608 72.2708 19.768 72.7188 20.088C73.1668 20.3973 73.3908 20.8453 73.3908 21.432C73.3908 21.816 73.2841 22.1573 73.0708 22.456C72.8574 22.7547 72.5481 22.9947 72.1428 23.176ZM71.9028 21.624C71.9028 21.2827 71.7694 21.0267 71.5028 20.856C71.2361 20.6853 70.8254 20.6 70.2708 20.6C69.9188 20.6 69.6468 20.6053 69.4548 20.616L69.4068 22.776L70.7828 22.824C71.1454 22.7493 71.4228 22.6107 71.6148 22.408C71.8068 22.2053 71.9028 21.944 71.9028 21.624ZM70.4308 26.088C71.0068 26.088 71.4494 25.9813 71.7588 25.768C72.0681 25.5547 72.2228 25.2453 72.2228 24.84C72.2228 24.232 71.8068 23.8747 70.9748 23.768L69.3908 23.784L69.4228 26.04C69.7641 26.072 70.1001 26.088 70.4308 26.088ZM80.7773 23.384L76.2812 23.4C76.2919 24.2107 76.4893 24.8293 76.8733 25.256C77.2573 25.672 77.8013 25.88 78.5052 25.88C79.2413 25.88 79.9613 25.6613 80.6653 25.224L80.8253 25.32L80.5853 26.632C79.8066 26.9733 79.0493 27.144 78.3133 27.144C77.2146 27.144 76.3506 26.808 75.7213 26.136C75.1026 25.4533 74.7933 24.5253 74.7933 23.352C74.7933 22.168 75.1026 21.2293 75.7213 20.536C76.3399 19.8427 77.1773 19.496 78.2333 19.496C79.1293 19.496 79.8173 19.7413 80.2973 20.232C80.7879 20.7227 81.0333 21.416 81.0333 22.312C81.0333 22.5573 81.0066 22.8507 80.9533 23.192L80.7773 23.384ZM79.5613 22.12C79.5613 21.6187 79.4439 21.24 79.2093 20.984C78.9853 20.728 78.6546 20.6 78.2173 20.6C77.7266 20.6 77.3213 20.76 77.0013 21.08C76.6813 21.3893 76.4679 21.832 76.3613 22.408L79.5293 22.344L79.5613 22.12ZM76.7933 16.376C77.0386 16.376 77.2306 16.4507 77.3693 16.6C77.5186 16.7387 77.5933 16.9307 77.5933 17.176C77.5933 17.4427 77.5133 17.656 77.3533 17.816C77.2039 17.976 77.0013 18.056 76.7453 18.056C76.4786 18.056 76.2759 17.9867 76.1373 17.848C75.9986 17.6987 75.9293 17.496 75.9293 17.24C75.9293 16.9733 76.0039 16.7653 76.1533 16.616C76.3133 16.456 76.5266 16.376 76.7933 16.376ZM79.4173 16.376C79.6733 16.376 79.8706 16.4507 80.0093 16.6C80.1479 16.7387 80.2173 16.9307 80.2173 17.176C80.2173 17.4427 80.1373 17.656 79.9773 17.816C79.8279 17.976 79.6253 18.056 79.3693 18.056C79.1133 18.056 78.9106 17.9867 78.7613 17.848C78.6226 17.6987 78.5533 17.496 78.5533 17.24C78.5533 16.9733 78.6279 16.7653 78.7773 16.616C78.9373 16.456 79.1506 16.376 79.4173 16.376ZM85.6231 19.48C85.9645 19.48 86.3111 19.5173 86.6631 19.592C87.0151 19.6667 87.3245 19.768 87.5911 19.896L87.3191 21.256L87.1591 21.32C86.5938 20.9893 86.0711 20.824 85.5911 20.824C85.0258 20.824 84.5831 21.0373 84.2631 21.464C83.9431 21.8907 83.7831 22.488 83.7831 23.256C83.7831 24.0773 83.9485 24.7173 84.2791 25.176C84.6098 25.624 85.0791 25.848 85.6871 25.848C86.2205 25.848 86.7911 25.688 87.3991 25.368L87.5431 25.464L87.3831 26.776C86.7325 27.0213 86.0818 27.144 85.4311 27.144C84.4285 27.144 83.6445 26.8133 83.0791 26.152C82.5245 25.48 82.2471 24.5573 82.2471 23.384C82.2471 22.168 82.5458 21.2133 83.1431 20.52C83.7405 19.8267 84.5671 19.48 85.6231 19.48Z" fill="black"/>
<path d="M215.555 18.968C216.195 18.968 216.718 19.1333 217.123 19.464C217.539 19.784 217.747 20.2107 217.747 20.744C217.747 21.1707 217.598 21.6507 217.299 22.184C217 22.7067 216.526 23.3467 215.875 24.104L214.259 25.944L214.291 26.008H217.251L218.595 25.912L218.691 25.992L218.515 27.064L216.883 27H213.299L212.707 27.032L212.627 26.968V26.168L214.851 23.752C215.427 23.112 215.848 22.584 216.115 22.168C216.382 21.7413 216.515 21.368 216.515 21.048C216.515 20.76 216.408 20.5253 216.195 20.344C215.982 20.152 215.683 20.056 215.299 20.056C214.915 20.056 214.531 20.152 214.147 20.344C213.774 20.536 213.432 20.8027 213.123 21.144H212.963L212.755 20.168C213.171 19.784 213.619 19.4907 214.099 19.288C214.579 19.0747 215.064 18.968 215.555 18.968ZM225.156 19.064L225.028 20.072L224.932 20.168L223.764 20.072H221.396L221.332 22.568L222.34 22.776C223.332 22.9893 224.036 23.2987 224.452 23.704C224.868 24.1093 225.076 24.6427 225.076 25.304C225.076 25.944 224.911 26.5093 224.58 27C224.26 27.4907 223.807 27.8747 223.22 28.152C222.644 28.4293 221.988 28.568 221.252 28.568C220.804 28.568 220.303 28.5147 219.748 28.408L219.652 27.288L219.764 27.176C220.362 27.432 220.943 27.56 221.508 27.56C222.234 27.56 222.81 27.3733 223.236 27C223.663 26.616 223.876 26.12 223.876 25.512C223.876 25.032 223.711 24.648 223.38 24.36C223.06 24.072 222.532 23.8587 221.796 23.72L220.436 23.464L220.324 23.352L220.404 19.176L220.612 19L221.46 19.032H223.62L225.092 18.968L225.156 19.064ZM234.068 19.752L233.972 20.6L232.308 20.568H231.028L230.996 23.784L231.044 27H229.796L229.86 23.896L229.812 19.672H233.988L234.068 19.752Z" fill="black"/>
<path d="M31.4701 24.3212C31.9297 25.0528 32.6565 25.4513 33.4349 25.4513C33.796 25.4513 34.1665 25.3669 34.5276 25.1887L35.925 24.6964L34.9918 23.5428C34.6026 22.9238 34.0164 22.5533 33.3787 22.4502C33.8664 22.4174 34.3494 22.2345 34.7667 21.8828L36.0047 21.0715L34.823 20.1758C34.5557 19.9132 34.2509 19.7397 33.932 19.6225C34.1993 19.4209 34.4291 19.1536 34.6073 18.83L35.4654 17.6202L34.0399 17.2169C33.4818 16.9824 32.9097 16.9637 32.4033 17.1278C32.7644 16.837 33.0457 16.4338 33.1958 15.9367L33.7913 14.5815L32.3142 14.4736C31.0715 14.2345 29.9601 14.9004 29.5944 16.1102L29.1161 17.1934C28.8206 16.8558 28.5018 16.5416 28.1547 16.2556L29.2989 15.646C30.4807 15.1911 31.0621 14.0328 30.7292 12.8136L30.5135 11.3458L29.2052 12.0399C28.0234 12.4947 27.442 13.653 27.7749 14.8769L27.9531 16.0868C27.5592 15.7819 27.1372 15.5193 26.687 15.2896L27.245 14.272C27.9859 13.245 27.8406 11.9555 26.8886 11.1161L25.9086 10L25.1958 11.2989C24.4549 12.3259 24.6002 13.6155 25.5522 14.4549L26.0211 14.9801C25.9179 14.9379 25.8195 14.8957 25.7116 14.8581C25.5287 14.7972 25.3411 14.8675 25.2333 15.0176L24.4642 14.136C23.7515 13.0903 22.4947 12.7808 21.3787 13.381L20 13.925L20.9707 15.041C21.4396 15.7304 22.143 16.1008 22.8933 16.1008C23.0199 16.1008 23.1465 16.0868 23.2685 16.0633C22.6729 16.2931 22.1852 16.7714 21.9273 17.4467L21.2427 18.7644L22.7104 18.966C22.9308 19.0223 23.1512 19.0504 23.3669 19.0504C23.7468 19.0504 24.1079 18.9566 24.4267 18.7878C24.3095 19.1348 24.2673 19.5193 24.3236 19.9226L24.3611 21.4045L25.7444 20.8746C25.857 20.8464 25.9648 20.8042 26.068 20.762C26.0352 20.8746 26.0023 20.9918 25.9836 21.1137L25.585 22.5393L27.0621 22.4408C27.0809 22.4408 27.0996 22.4361 27.1184 22.4408C26.8839 22.6518 26.6776 22.9097 26.5276 23.2239L25.7304 24.4713L27.1747 24.8042C27.3435 24.8652 27.5123 24.9027 27.6811 24.9261C27.0621 24.9777 26.476 25.2778 26.0399 25.8265L24.9848 26.8675L26.3212 27.51C26.7386 27.7773 27.1887 27.9086 27.6249 27.9086C28.3095 27.9086 28.9707 27.5944 29.4537 26.9894L29.51 26.9332C28.1923 30.1172 25.3552 32.4525 21.6178 33.1653C21.388 33.2075 21.238 33.4326 21.2802 33.6577C21.3177 33.8593 21.4959 34 21.6928 34C21.721 34 21.7444 33.9953 21.7726 33.9906C25.5756 33.2638 28.5111 30.9801 30.0258 27.8429L29.9695 29.0856C29.7585 30.3329 30.4572 31.4256 31.6811 31.7632L33.0551 32.3212L33.1254 30.8394C33.3365 29.592 32.6377 28.4994 31.4138 28.1618L30.1336 27.6366C30.3634 27.1301 30.551 26.6049 30.7104 26.061L30.8886 26.6893C31.0856 27.9367 32.0938 28.7573 33.3599 28.687L34.837 28.7855L34.4338 27.3599C34.2368 26.1079 33.2192 25.2919 31.9625 25.3623L30.9027 25.2919C31.0012 24.8277 31.0762 24.354 31.1184 23.871L31.4701 24.3212ZM29.5287 12.8089L29.857 12.6401L29.9039 12.9496L29.9132 13.0012C30.143 13.8124 29.7679 14.558 28.9801 14.8535L28.6518 15.0223L28.6049 14.7128L28.5955 14.6612C28.3611 13.8499 28.7362 13.1043 29.5287 12.8089ZM25.8898 11.7726L26.0727 11.449L26.2837 11.6835L26.3212 11.721C26.959 12.2743 27.0528 13.0996 26.551 13.7796L26.3681 14.1032L26.1618 13.8687L26.1243 13.8312C25.4865 13.2825 25.3927 12.4525 25.8898 11.7726ZM30.8136 29.2169L30.8324 28.8511L31.1231 28.9683L31.1747 28.9871C31.9906 29.2028 32.4408 29.9015 32.2907 30.7362L32.272 31.102L31.9812 30.9848L31.9297 30.966C31.1137 30.7503 30.6635 30.0469 30.8136 29.2169ZM31.9672 26.2204H31.9953C32.8347 26.1594 33.4865 26.6893 33.6084 27.524L33.7069 27.8804L33.3646 27.857H33.3365C32.5018 27.9179 31.8453 27.388 31.7233 26.5533L31.6249 26.197L31.9672 26.2204ZM31.1653 22.9472C31.1653 22.8253 31.1747 22.7081 31.1747 22.5862C31.17 22.1735 31.1278 21.7655 31.0668 21.3669L31.5967 21.7702C31.9672 22.1313 32.4033 22.347 32.8581 22.422C32.5533 22.4455 32.2438 22.5252 31.9437 22.6753L31.1653 22.9472ZM30.5744 19.585L31.6108 19.8804C31.6764 19.9086 31.7421 19.932 31.803 19.9508C31.7515 19.9883 31.6999 20.0164 31.6483 20.0586L30.8886 20.5557C30.8089 20.2227 30.7011 19.8992 30.5744 19.585ZM34.2884 24.007L34.5182 24.2978L34.2227 24.4009L34.1712 24.4244C33.4209 24.8042 32.619 24.5791 32.1782 23.8617L31.9484 23.5709L32.2438 23.4678L32.2954 23.4443C33.0457 23.0598 33.8476 23.2849 34.2884 24.007ZM34.5463 21.0152L34.2837 21.1887L34.2415 21.2216C33.5991 21.7749 32.7691 21.7421 32.1688 21.1512L31.8781 20.9261L32.1407 20.7526L32.1829 20.7198C32.8206 20.1665 33.6553 20.1993 34.2556 20.7902L34.5463 21.0152ZM33.7304 17.9953L34.0821 18.0985L33.8992 18.3564L33.871 18.4033C33.4771 19.1489 32.6893 19.4256 31.9156 19.0926L31.5639 18.9894L31.7468 18.7315L31.7749 18.6846C32.1735 17.939 32.9566 17.6624 33.7304 17.9953ZM30.3775 16.415L30.3962 16.3634C30.6307 15.5522 31.3435 15.1208 32.1735 15.2943L32.5393 15.3224L32.4127 15.6084L32.3939 15.66C32.1594 16.4713 31.442 16.898 30.6166 16.7292L30.2509 16.7011L30.3775 16.415ZM30.476 17.5639C30.6448 17.5967 30.8136 17.6155 30.9777 17.6155C31.2263 17.6155 31.4607 17.578 31.6858 17.5076C31.4326 17.7046 31.2122 17.9578 31.0434 18.2673L30.3962 19.177C30.1196 18.5721 29.7726 18 29.3646 17.4842L30.476 17.5639ZM29.3927 19.0504L28.4549 19.1114C28.0938 19.0926 27.7562 19.1536 27.4467 19.2708C27.5358 18.9519 27.5686 18.6049 27.517 18.2392L27.4795 16.7808C28.2673 17.3998 28.9144 18.1735 29.3927 19.0504ZM21.66 14.5533L21.4209 14.272L21.7116 14.1594L21.7632 14.136C22.4994 13.728 23.3107 13.925 23.7749 14.6284L24.0141 14.9097L23.7233 15.0223L23.6717 15.0457C22.9355 15.4537 22.1243 15.2521 21.66 14.5533ZM24.0563 15.796L25.1676 15.3599C25.2005 15.4912 25.2943 15.6084 25.4302 15.6553C26.1759 15.9132 26.8558 16.2931 27.4607 16.7667L26.0961 17.2872C25.8898 17.3388 25.7069 17.4185 25.5334 17.5076L26.2181 16.1899L24.7503 15.9883C24.4033 15.8992 24.0703 15.8851 23.7515 15.9367C23.8546 15.8945 23.9578 15.8523 24.0563 15.796ZM22.9121 18.1454L22.5463 18.0891L22.6917 17.8124L22.7151 17.7608C23.0012 16.9683 23.7421 16.5838 24.558 16.8089L24.9238 16.8652L24.7784 17.1419L24.755 17.1934C24.4642 17.9859 23.7233 18.3705 22.9121 18.1454ZM25.5287 20.0633L25.1817 20.1899L25.1723 19.8757L25.1676 19.8195C25.0363 18.9848 25.5006 18.2954 26.3212 18.0985L26.6682 17.9719L26.6776 18.286L26.6823 18.3423C26.8136 19.177 26.3494 19.8664 25.5287 20.0633ZM27.0668 21.5967L26.7245 21.6202L26.8089 21.32L26.8183 21.2638C26.9355 20.4666 27.5264 19.9555 28.3095 19.9555C28.347 19.9555 28.3845 19.9555 28.4267 19.9601H28.4549L28.7972 19.9367L28.7128 20.2368L28.7034 20.2931C28.5815 21.1278 27.9437 21.653 27.095 21.6014L27.0668 21.5967ZM29.5334 20.4431L29.7304 19.7444C30.0539 20.5135 30.2509 21.3482 30.3072 22.2157L29.4678 22.0234C29.2286 21.939 28.9894 21.8968 28.755 21.8828C29.163 21.5311 29.4443 21.0387 29.5334 20.4431ZM27.0903 23.9226L27.2591 23.66L27.2872 23.6131C27.6436 22.8488 28.4174 22.5346 29.2052 22.83L29.5662 22.9144L29.3974 23.177L29.3693 23.2239C29.0129 23.9883 28.2392 24.3072 27.4513 24.007L27.0903 23.9226ZM28.8441 26.4174L28.8066 26.4596C28.2907 27.1254 27.4654 27.2614 26.762 26.8019L26.4338 26.6377L26.6589 26.4174L26.6964 26.3751C27.2122 25.7093 28.0328 25.5733 28.7409 26.0328L29.0692 26.197L28.8441 26.4174ZM29.177 25.3107C28.8722 25.1137 28.544 25.0012 28.2204 24.9496C29.0223 24.8839 29.7351 24.4103 30.1196 23.6038L30.3118 23.3036C30.2743 24.129 30.1524 24.9215 29.9461 25.6811L29.177 25.3107Z" fill="black"/>
</symbol>

<symbol id="almond">
<path d="M68.016 27H66.544L66.336 23.88L65.856 19.24H65.744L63.104 25.864H61.792L59.344 19.24H59.2L58.72 23.736L58.464 27H57.072L58.144 16.728H60.032L60.512 18.264L62.48 23.72H62.608L64.688 18.216L65.168 16.728H67.04L68.016 27ZM70.264 23.912L70.2 19.656L71.784 19.592L71.752 24.744H71.848L74.808 19.624H76.408L76.344 23.72L76.408 27H74.824L74.872 24.024L74.888 21.784H74.776L71.768 27H70.2L70.264 23.912ZM84.8924 23.768L84.9404 27H83.3404L83.4044 23.912L81.7724 23.896L80.2364 23.928L80.2844 27H78.6844L78.7484 23.912L78.7004 19.624H80.3004L80.2524 22.696L81.8364 22.712H83.3884L83.3724 19.624H84.9564L84.8924 23.768ZM93.9791 25.832V28.76L92.9071 28.856L92.7151 27H87.6111L87.4191 28.76L86.3471 28.856V25.832H86.9391C87.2591 25.6293 87.5098 25.3573 87.6911 25.016C87.8725 24.6747 88.0165 24.2 88.1231 23.592C88.2405 22.9733 88.3578 22.0987 88.4751 20.968L88.6191 19.624H92.9871L92.9231 23.768L92.9551 25.832H93.9791ZM91.4831 23.912L91.4351 20.696H89.7711L89.7071 21.224C89.5791 22.5787 89.4138 23.6027 89.2111 24.296C89.0191 24.9787 88.7418 25.4907 88.3791 25.832H91.4511L91.4831 23.912ZM98.2756 19.48C99.0116 19.48 99.593 19.656 100.02 20.008C100.446 20.36 100.66 20.8507 100.66 21.48C100.66 21.672 100.628 22.312 100.564 23.4C100.5 24.4667 100.468 25.0907 100.468 25.272C100.468 25.4747 100.5 25.6187 100.564 25.704C100.638 25.7787 100.761 25.816 100.932 25.816C101.038 25.816 101.198 25.7947 101.412 25.752L101.556 25.864L101.396 26.76C101.086 26.952 100.75 27.0693 100.388 27.112C100.057 27.08 99.7903 26.9627 99.5876 26.76C99.385 26.5467 99.2623 26.2693 99.2196 25.928H99.1076C98.5636 26.504 98.009 26.904 97.4436 27.128C96.7076 27.1173 96.1263 26.9253 95.6996 26.552C95.2836 26.1787 95.0756 25.672 95.0756 25.032C95.0756 24.0827 95.593 23.4907 96.6276 23.256L99.1556 22.696L99.1716 21.832C99.1716 21.4373 99.0703 21.1387 98.8676 20.936C98.6756 20.7333 98.393 20.632 98.0196 20.632C97.657 20.632 97.2943 20.7173 96.9316 20.888C96.569 21.048 96.169 21.304 95.7316 21.656L95.6036 21.576L95.3956 20.44C96.3343 19.8 97.2943 19.48 98.2756 19.48ZM97.0756 24.136C96.8836 24.1787 96.745 24.2533 96.6596 24.36C96.5743 24.456 96.5316 24.6107 96.5316 24.824C96.5316 25.144 96.617 25.3947 96.7876 25.576C96.969 25.7573 97.209 25.848 97.5076 25.848C98.009 25.848 98.5423 25.5227 99.1076 24.872L99.1556 23.64L97.0756 24.136ZM108.384 23.768L108.448 27H106.848L106.896 23.912L106.88 20.712H105.2L105.136 21.24C104.976 22.7333 104.795 23.8853 104.592 24.696C104.4 25.5067 104.155 26.0987 103.856 26.472C103.568 26.8347 103.184 27.0587 102.704 27.144L102.32 27.16L102.064 25.912C102.459 25.784 102.768 25.5653 102.992 25.256C103.216 24.936 103.398 24.4507 103.536 23.8C103.675 23.1493 103.803 22.2053 103.92 20.968L104.064 19.656L104.048 19.624H108.464L108.384 23.768ZM113.932 22.472C114.732 22.472 115.34 22.6427 115.756 22.984C116.182 23.3253 116.396 23.8213 116.396 24.472C116.396 25.272 116.102 25.896 115.516 26.344C114.929 26.7813 114.113 27 113.068 27H110.716L110.78 23.912L110.732 19.624H112.332L112.284 22.472H113.932ZM113.5 25.992C113.937 25.928 114.273 25.784 114.508 25.56C114.742 25.3253 114.86 25.0213 114.86 24.648C114.86 24.264 114.737 23.9653 114.492 23.752C114.257 23.5387 113.921 23.4373 113.484 23.448L112.268 23.464V23.768L112.3 25.96L113.5 25.992Z" fill="black"/>
<path d="M213.789 18.968C214.429 18.968 214.952 19.1333 215.357 19.464C215.773 19.784 215.981 20.2107 215.981 20.744C215.981 21.1707 215.832 21.6507 215.533 22.184C215.235 22.7067 214.76 23.3467 214.109 24.104L212.493 25.944L212.525 26.008H215.485L216.829 25.912L216.925 25.992L216.749 27.064L215.117 27H211.533L210.941 27.032L210.861 26.968V26.168L213.085 23.752C213.661 23.112 214.083 22.584 214.349 22.168C214.616 21.7413 214.749 21.368 214.749 21.048C214.749 20.76 214.643 20.5253 214.429 20.344C214.216 20.152 213.917 20.056 213.533 20.056C213.149 20.056 212.765 20.152 212.381 20.344C212.008 20.536 211.667 20.8027 211.357 21.144H211.197L210.989 20.168C211.405 19.784 211.853 19.4907 212.333 19.288C212.813 19.0747 213.299 18.968 213.789 18.968ZM221.711 18.936C222.788 18.936 223.62 19.288 224.207 19.992C224.804 20.6853 225.103 21.6773 225.103 22.968C225.103 24.2907 224.793 25.3147 224.175 26.04C223.556 26.7547 222.681 27.112 221.551 27.112C220.463 27.112 219.62 26.7653 219.023 26.072C218.436 25.3787 218.143 24.3973 218.143 23.128C218.143 21.784 218.452 20.7493 219.071 20.024C219.689 19.2987 220.569 18.936 221.711 18.936ZM221.599 20.104C220.788 20.104 220.175 20.3493 219.759 20.84C219.353 21.3307 219.151 22.0613 219.151 23.032C219.151 24.0133 219.359 24.7547 219.775 25.256C220.191 25.7467 220.804 25.992 221.615 25.992C222.425 25.992 223.039 25.752 223.455 25.272C223.881 24.7813 224.095 24.0613 224.095 23.112C224.095 22.12 223.881 21.3733 223.455 20.872C223.039 20.36 222.42 20.104 221.599 20.104ZM234.068 19.752L233.972 20.6L232.308 20.568H231.028L230.996 23.784L231.044 27H229.796L229.86 23.896L229.812 19.672H233.988L234.068 19.752Z" fill="black"/>
<path d="M27.268 29.194C27.0196 29.119 26.7571 29.2597 26.6868 29.5081C26.0634 31.5986 24.0995 33.061 21.9152 33.061C19.1685 33.0563 16.9374 30.8252 16.9374 28.0832C16.9374 24.4037 18.2311 20.818 20.5841 17.9869L21.3762 17.0354C21.5075 16.8761 21.7043 16.7823 21.9106 16.7823C22.1168 16.7823 22.3137 16.8761 22.4449 17.0354L23.237 17.9869C25.0322 20.1477 26.2228 22.7538 26.6774 25.524C26.7196 25.7771 26.9587 25.9505 27.2165 25.9083C27.4696 25.8661 27.643 25.6271 27.6008 25.3693C27.118 22.4351 25.8572 19.6743 23.9589 17.387L23.1714 16.4308C22.8621 16.0558 22.4027 15.8402 21.9152 15.8402C21.4278 15.8402 20.9684 16.0558 20.6591 16.4308L19.8669 17.3823C17.3733 20.3821 16 24.1834 16 28.0832C16 31.3455 18.653 33.9984 21.9152 33.9984C23.2136 33.9984 24.4463 33.5859 25.4822 32.8032C26.4806 32.0485 27.2305 30.9705 27.5868 29.7799C27.6571 29.5268 27.5164 29.2643 27.268 29.194Z" fill="black"/>
<path d="M21.6903 21.8539C21.4606 21.9758 21.3762 22.2617 21.4981 22.4867C22.2715 23.9257 22.7449 25.5474 22.8714 27.1739C22.8902 27.4176 23.0964 27.6051 23.3401 27.6051C23.3542 27.6051 23.3636 27.6051 23.3776 27.6051C23.6354 27.5864 23.8276 27.3614 23.8089 27.1036C23.6729 25.3224 23.1714 23.621 22.3277 22.0461C22.2058 21.8164 21.9199 21.732 21.6903 21.8539Z" fill="black"/>
<path d="M21.9153 30.0144C22.1731 30.0144 22.384 29.8035 22.384 29.5457C22.384 29.2879 22.1731 29.077 21.9153 29.077C21.3669 29.077 20.9169 28.6317 20.9169 28.0786C20.9169 27.4927 20.9591 26.9021 21.0482 26.3256C21.0857 26.0678 20.9122 25.8287 20.6544 25.7912C20.3967 25.7537 20.1576 25.9272 20.1201 26.1849C20.0264 26.8083 19.9795 27.4458 19.9795 28.0786C19.9795 29.1473 20.8466 30.0144 21.9153 30.0144Z" fill="black"/>
<path d="M21.9153 32.0064C24.0807 32.0064 25.8384 30.244 25.8384 28.0832C25.8384 27.8254 25.6275 27.6145 25.3697 27.6145C25.1119 27.6145 24.901 27.8254 24.901 28.0832C24.901 29.7284 23.5605 31.069 21.9153 31.069C21.6575 31.069 21.4465 31.2799 21.4465 31.5377C21.4465 31.7955 21.6575 32.0064 21.9153 32.0064Z" fill="black"/>
<path d="M24.9713 25.2053C25.0088 25.2053 25.0463 25.2006 25.0838 25.1912C25.3369 25.1303 25.4916 24.8772 25.4307 24.6241C25.1073 23.2835 24.5964 21.9946 23.9167 20.7946C23.7902 20.5697 23.5043 20.49 23.2793 20.6165C23.0543 20.7431 22.9746 21.029 23.1012 21.254C23.7386 22.3789 24.2167 23.5835 24.5214 24.8397C24.5682 25.06 24.7604 25.2053 24.9713 25.2053Z" fill="black"/>
<path d="M20.1106 21.4039C19.8762 21.2914 19.5997 21.3851 19.4825 21.6195C18.5075 23.6256 17.9919 25.8567 17.9919 28.0785C17.9919 28.3363 18.2029 28.5472 18.4607 28.5472C18.7185 28.5472 18.9294 28.3363 18.9294 28.0785C18.9294 25.9973 19.4122 23.9069 20.3262 22.032C20.4387 21.7976 20.3402 21.5211 20.1106 21.4039Z" fill="black"/>
<path d="M39.9938 23.2601L39.8813 22.0273C39.525 18.1463 37.8095 14.4903 35.0534 11.7296C32.7473 9.42347 28.9976 9.42347 26.6915 11.7296C24.3854 14.0357 24.3854 17.7854 26.6915 20.0915C29.4476 22.8476 33.1036 24.5631 36.9893 24.924L38.222 25.0365C38.2736 25.0412 38.3251 25.0412 38.372 25.0412C38.8032 25.0412 39.2157 24.8725 39.525 24.5631C39.8625 24.221 40.0359 23.7429 39.9938 23.2601ZM38.8548 23.9022C38.7095 24.0475 38.5032 24.1225 38.297 24.1038L37.0643 23.9913C33.3989 23.6538 29.9491 22.032 27.3477 19.4306C25.4072 17.4901 25.4072 14.331 27.3477 12.3905C28.2898 11.4483 29.5366 10.9328 30.8678 10.9328C32.1989 10.9328 33.4457 11.4483 34.3879 12.3905C36.9893 14.9919 38.611 18.4463 38.9485 22.107L39.061 23.3398C39.0751 23.5507 39.0048 23.7569 38.8548 23.9022Z" fill="black"/>
<path d="M30.8632 14.9169C31.1304 14.9169 31.3788 15.02 31.5663 15.2075C31.9787 15.6199 32.3678 16.0699 32.7146 16.5386C32.8084 16.6652 32.949 16.7308 33.0943 16.7308C33.1927 16.7308 33.2865 16.7027 33.3708 16.6371C33.5771 16.4824 33.6239 16.1918 33.4693 15.9809C33.0943 15.4699 32.6771 14.9872 32.2318 14.5419C31.8662 14.1763 31.3835 13.9747 30.8632 13.9747C30.3476 13.9747 29.8601 14.1763 29.4945 14.5419C29.3117 14.7247 29.3117 15.02 29.4945 15.2028C29.6773 15.3856 29.9726 15.3856 30.1554 15.2028C30.3476 15.02 30.6007 14.9169 30.8632 14.9169Z" fill="black"/>
<path d="M35.1144 19.576C33.5489 19.1026 32.0678 18.2917 30.8257 17.2324C30.6288 17.0637 30.3335 17.0871 30.1648 17.2839C29.996 17.4808 30.0195 17.7761 30.2163 17.9448C31.5709 19.1073 33.1271 19.9557 34.8426 20.4759C34.8895 20.49 34.9316 20.4947 34.9785 20.4947C35.1801 20.4947 35.3676 20.3634 35.4285 20.1619C35.4988 19.9088 35.3582 19.651 35.1144 19.576Z" fill="black"/>
<path d="M33.6378 13.1358C33.455 12.953 33.1597 12.953 32.9769 13.1358C32.7941 13.3186 32.7941 13.6139 32.9769 13.7967C34.4487 15.2684 35.583 17.0871 36.2674 19.0604C36.333 19.2525 36.5158 19.3744 36.7126 19.3744C36.7642 19.3744 36.8158 19.365 36.8673 19.3463C37.1111 19.2619 37.2423 18.9948 37.1579 18.751C36.4267 16.6512 35.2127 14.706 33.6378 13.1358Z" fill="black"/>
<path d="M34.8565 21.5726C33.6097 21.2305 32.4192 20.7149 31.3177 20.0399C31.0974 19.904 30.8068 19.9743 30.6756 20.1946C30.5396 20.4149 30.6099 20.7055 30.8302 20.8368C32.0067 21.5586 33.2816 22.107 34.6081 22.4726C34.6503 22.482 34.6925 22.4913 34.7347 22.4913C34.9409 22.4913 35.1284 22.3554 35.1846 22.1492C35.2503 21.8961 35.105 21.6383 34.8565 21.5726Z" fill="black"/>
<path d="M28.7539 13.1358C28.5711 12.953 28.2758 12.953 28.093 13.1358C26.565 14.6638 26.565 17.1574 28.093 18.6854C28.1868 18.7791 28.304 18.8213 28.4258 18.8213C28.5477 18.8213 28.6649 18.7745 28.7586 18.6854C28.9414 18.5026 28.9414 18.2073 28.7586 18.0245C27.5962 16.8621 27.5962 14.9638 28.7586 13.8013C28.9367 13.6185 28.9367 13.3186 28.7539 13.1358Z" fill="black"/>
<path d="M27.3525 27.0754C27.2306 27.0754 27.1088 27.127 27.0197 27.2114C26.9307 27.3004 26.8838 27.4176 26.8838 27.5442C26.8838 27.666 26.9353 27.7879 27.0197 27.877C27.1088 27.966 27.226 28.0129 27.3525 28.0129C27.4791 28.0129 27.5962 27.9613 27.6853 27.877C27.7744 27.7879 27.8212 27.6707 27.8212 27.5442C27.8212 27.4176 27.7697 27.3004 27.6853 27.2114C27.5962 27.1223 27.4744 27.0754 27.3525 27.0754Z" fill="black"/>
</symbol>

<symbol id="drymilk">
<path d="M61.488 16.616C62.5333 16.616 63.456 16.8507 64.256 17.32L63.952 18.776L63.792 18.824C63.0773 18.2693 62.288 17.992 61.424 17.992C60.4853 17.992 59.7653 18.312 59.264 18.952C58.7733 19.5813 58.528 20.5253 58.528 21.784C58.528 23.0747 58.7787 24.056 59.28 24.728C59.7813 25.4 60.496 25.736 61.424 25.736C61.872 25.736 62.3147 25.6613 62.752 25.512C63.2 25.352 63.6107 25.1333 63.984 24.856L64.144 24.952L64.016 26.456C63.0987 26.904 62.192 27.128 61.296 27.128C59.856 27.128 58.7467 26.68 57.968 25.784C57.1893 24.888 56.8 23.6133 56.8 21.96C56.8 20.2533 57.2053 18.936 58.016 18.008C58.8373 17.08 59.9947 16.616 61.488 16.616ZM66.6376 20.616L68.2376 25.304H68.3496L69.9496 20.76L70.2216 19.624H71.6296L69.0856 26.632C68.8296 27.3573 68.547 27.9333 68.2376 28.36C67.9283 28.7973 67.5443 29.144 67.0856 29.4C66.6376 29.656 66.051 29.8747 65.3256 30.056H65.1816C64.9256 29.8 64.7016 29.48 64.5096 29.096L64.5576 28.92C65.315 28.7813 65.9123 28.5787 66.3496 28.312C66.787 28.0453 67.187 27.608 67.5496 27L64.8616 19.656L66.3976 19.576L66.6376 20.616ZM74.1504 20.36L75.4624 22.344L76.6944 20.328L77.0784 19.624H78.5344L76.3264 23.24L78.6784 26.936L76.9664 27.08L76.6144 26.248L75.2544 24.184L73.8944 26.328L73.5584 27H72.1024L74.3584 23.272L72.1024 19.672L73.8304 19.576L74.1504 20.36ZM82.7344 19.48C83.769 19.48 84.5637 19.8053 85.1184 20.456C85.6837 21.096 85.9664 22.008 85.9664 23.192C85.9664 24.4613 85.6677 25.4373 85.0704 26.12C84.473 26.8027 83.625 27.144 82.5264 27.144C81.4917 27.144 80.6917 26.824 80.1264 26.184C79.5717 25.5333 79.2944 24.616 79.2944 23.432C79.2944 22.1627 79.593 21.1867 80.1904 20.504C80.7877 19.8213 81.6357 19.48 82.7344 19.48ZM82.6384 20.616C81.4224 20.616 80.8144 21.4373 80.8144 23.08C80.8144 24.0827 80.9637 24.824 81.2624 25.304C81.561 25.784 82.0197 26.024 82.6384 26.024C83.2464 26.024 83.6997 25.8213 83.9984 25.416C84.297 25.0107 84.4464 24.392 84.4464 23.56C84.4464 22.5573 84.297 21.816 83.9984 21.336C83.6997 20.856 83.2464 20.616 82.6384 20.616ZM93.0116 23.384L88.5156 23.4C88.5263 24.2107 88.7236 24.8293 89.1076 25.256C89.4916 25.672 90.0356 25.88 90.7396 25.88C91.4756 25.88 92.1956 25.6613 92.8996 25.224L93.0596 25.32L92.8196 26.632C92.041 26.9733 91.2836 27.144 90.5476 27.144C89.449 27.144 88.585 26.808 87.9556 26.136C87.337 25.4533 87.0276 24.5253 87.0276 23.352C87.0276 22.168 87.337 21.2293 87.9556 20.536C88.5743 19.8427 89.4116 19.496 90.4676 19.496C91.3636 19.496 92.0516 19.7413 92.5316 20.232C93.0223 20.7227 93.2676 21.416 93.2676 22.312C93.2676 22.5573 93.241 22.8507 93.1876 23.192L93.0116 23.384ZM91.7956 22.12C91.7956 21.6187 91.6783 21.24 91.4436 20.984C91.2196 20.728 90.889 20.6 90.4516 20.6C89.961 20.6 89.5556 20.76 89.2356 21.08C88.9156 21.3893 88.7023 21.832 88.5956 22.408L91.7636 22.344L91.7956 22.12ZM98.132 19.624H99.748L100.1 20.728L101.396 24.36H101.508L102.916 20.728L103.284 19.624H104.868L105.556 27H104.26L104.132 24.696L103.86 21.752H103.748L101.94 26.216H100.82L99.156 21.752H99.06L98.756 24.488L98.564 27H97.332L98.132 19.624ZM110.453 19.48C111.488 19.48 112.282 19.8053 112.837 20.456C113.402 21.096 113.685 22.008 113.685 23.192C113.685 24.4613 113.386 25.4373 112.789 26.12C112.192 26.8027 111.344 27.144 110.245 27.144C109.21 27.144 108.41 26.824 107.845 26.184C107.29 25.5333 107.013 24.616 107.013 23.432C107.013 22.1627 107.312 21.1867 107.909 20.504C108.506 19.8213 109.354 19.48 110.453 19.48ZM110.357 20.616C109.141 20.616 108.533 21.4373 108.533 23.08C108.533 24.0827 108.682 24.824 108.981 25.304C109.28 25.784 109.738 26.024 110.357 26.024C110.965 26.024 111.418 25.8213 111.717 25.416C112.016 25.0107 112.165 24.392 112.165 23.56C112.165 22.5573 112.016 21.816 111.717 21.336C111.418 20.856 110.965 20.616 110.357 20.616ZM120.478 23.768L120.542 27H118.942L118.99 23.912L118.974 20.712H117.294L117.23 21.24C117.07 22.7333 116.889 23.8853 116.686 24.696C116.494 25.5067 116.249 26.0987 115.95 26.472C115.662 26.8347 115.278 27.0587 114.798 27.144L114.414 27.16L114.158 25.912C114.553 25.784 114.862 25.5653 115.086 25.256C115.31 24.936 115.491 24.4507 115.63 23.8C115.769 23.1493 115.897 22.2053 116.014 20.968L116.158 19.656L116.142 19.624H120.558L120.478 23.768ZM125.734 19.48C126.769 19.48 127.564 19.8053 128.118 20.456C128.684 21.096 128.966 22.008 128.966 23.192C128.966 24.4613 128.668 25.4373 128.07 26.12C127.473 26.8027 126.625 27.144 125.526 27.144C124.492 27.144 123.692 26.824 123.126 26.184C122.572 25.5333 122.294 24.616 122.294 23.432C122.294 22.1627 122.593 21.1867 123.19 20.504C123.788 19.8213 124.636 19.48 125.734 19.48ZM125.638 20.616C124.422 20.616 123.814 21.4373 123.814 23.08C123.814 24.0827 123.964 24.824 124.262 25.304C124.561 25.784 125.02 26.024 125.638 26.024C126.246 26.024 126.7 25.8213 126.998 25.416C127.297 25.0107 127.446 24.392 127.446 23.56C127.446 22.5573 127.297 21.816 126.998 21.336C126.7 20.856 126.246 20.616 125.638 20.616ZM130.639 23.912L130.591 19.736L132.191 19.592L132.127 23.768L132.175 27H130.575L130.639 23.912ZM133.903 22.984C134.799 24.2213 135.769 25.464 136.815 26.712L136.799 26.904C136.521 26.9787 136.223 27.032 135.903 27.064C135.583 27.1067 135.391 27.1333 135.327 27.144L135.167 27.08C134.004 25.608 133.06 24.2907 132.335 23.128V23.016L134.495 20.328L134.895 19.624H136.607L133.903 22.984ZM140.719 19.48C141.753 19.48 142.548 19.8053 143.103 20.456C143.668 21.096 143.951 22.008 143.951 23.192C143.951 24.4613 143.652 25.4373 143.055 26.12C142.457 26.8027 141.609 27.144 140.511 27.144C139.476 27.144 138.676 26.824 138.111 26.184C137.556 25.5333 137.279 24.616 137.279 23.432C137.279 22.1627 137.577 21.1867 138.175 20.504C138.772 19.8213 139.62 19.48 140.719 19.48ZM140.623 20.616C139.407 20.616 138.799 21.4373 138.799 23.08C138.799 24.0827 138.948 24.824 139.247 25.304C139.545 25.784 140.004 26.024 140.623 26.024C141.231 26.024 141.684 25.8213 141.983 25.416C142.281 25.0107 142.431 24.392 142.431 23.56C142.431 22.5573 142.281 21.816 141.983 21.336C141.684 20.856 141.231 20.616 140.623 20.616Z" fill="black"/>
<path d="M215.491 19.096L215.411 23.688L215.475 27H214.195L214.275 23.848L214.259 20.424L212.195 21L212.067 20.936V19.928L215.299 18.968L215.491 19.096ZM221.711 18.936C222.788 18.936 223.62 19.288 224.207 19.992C224.804 20.6853 225.103 21.6773 225.103 22.968C225.103 24.2907 224.793 25.3147 224.175 26.04C223.556 26.7547 222.681 27.112 221.551 27.112C220.463 27.112 219.62 26.7653 219.023 26.072C218.436 25.3787 218.143 24.3973 218.143 23.128C218.143 21.784 218.452 20.7493 219.071 20.024C219.689 19.2987 220.569 18.936 221.711 18.936ZM221.599 20.104C220.788 20.104 220.175 20.3493 219.759 20.84C219.353 21.3307 219.151 22.0613 219.151 23.032C219.151 24.0133 219.359 24.7547 219.775 25.256C220.191 25.7467 220.804 25.992 221.615 25.992C222.425 25.992 223.039 25.752 223.455 25.272C223.881 24.7813 224.095 24.0613 224.095 23.112C224.095 22.12 223.881 21.3733 223.455 20.872C223.039 20.36 222.42 20.104 221.599 20.104ZM234.068 19.752L233.972 20.6L232.308 20.568H231.028L230.996 23.784L231.044 27H229.796L229.86 23.896L229.812 19.672H233.988L234.068 19.752Z" fill="black"/>
<path d="M20.4812 17.45C20.7401 17.45 20.95 17.2401 20.95 16.9812C20.95 16.7223 20.7401 16.5125 20.4812 16.5125C20.2223 16.5125 20.0125 16.7223 20.0125 16.9812C20.0125 17.2401 20.2223 17.45 20.4812 17.45Z" fill="black"/>
<path d="M23.4875 17.45C23.7464 17.45 23.9563 17.2401 23.9563 16.9812C23.9563 16.7223 23.7464 16.5125 23.4875 16.5125C23.2287 16.5125 23.0188 16.7223 23.0188 16.9812C23.0188 17.2401 23.2287 17.45 23.4875 17.45Z" fill="black"/>
<path d="M21.9812 19.4187C22.2401 19.4187 22.45 19.2088 22.45 18.95C22.45 18.6911 22.2401 18.4812 21.9812 18.4812C21.7223 18.4812 21.5125 18.6911 21.5125 18.95C21.5125 19.2088 21.7223 19.4187 21.9812 19.4187Z" fill="black"/>
<path d="M24.9875 19.4187C25.2464 19.4187 25.4563 19.2088 25.4563 18.95C25.4563 18.6911 25.2464 18.4812 24.9875 18.4812C24.7287 18.4812 24.5188 18.6911 24.5188 18.95C24.5188 19.2088 24.7287 19.4187 24.9875 19.4187Z" fill="black"/>
<path d="M15.9375 19.4187C16.1964 19.4187 16.4062 19.2088 16.4062 18.95C16.4062 18.6911 16.1964 18.4812 15.9375 18.4812C15.6786 18.4812 15.4688 18.6911 15.4688 18.95C15.4688 19.2088 15.6786 19.4187 15.9375 19.4187Z" fill="black"/>
<path d="M18.9751 19.4187C19.234 19.4187 19.4438 19.2088 19.4438 18.95C19.4438 18.6911 19.234 18.4812 18.9751 18.4812C18.7162 18.4812 18.5063 18.6911 18.5063 18.95C18.5063 19.2088 18.7162 19.4187 18.9751 19.4187Z" fill="black"/>
<path d="M21.9812 15.475C22.2401 15.475 22.45 15.2651 22.45 15.0062C22.45 14.7473 22.2401 14.5375 21.9812 14.5375C21.7223 14.5375 21.5125 14.7473 21.5125 15.0062C21.5125 15.2651 21.7223 15.475 21.9812 15.475Z" fill="black"/>
<path d="M18.9751 15.475C19.234 15.475 19.4438 15.2651 19.4438 15.0062C19.4438 14.7473 19.234 14.5375 18.9751 14.5375C18.7162 14.5375 18.5063 14.7473 18.5063 15.0062C18.5063 15.2651 18.7162 15.475 18.9751 15.475Z" fill="black"/>
<path d="M17.5063 17.45C17.7652 17.45 17.9751 17.2401 17.9751 16.9812C17.9751 16.7223 17.7652 16.5125 17.5063 16.5125C17.2475 16.5125 17.0376 16.7223 17.0376 16.9812C17.0376 17.2401 17.2475 17.45 17.5063 17.45Z" fill="black"/>
<path d="M42.525 20.0188H38.0563C37.7938 20.0188 37.5875 20.2312 37.5875 20.4875C37.5875 20.75 37.8 20.9563 38.0563 20.9563H42.525C42.8188 20.9563 43.0563 21.1938 43.0563 21.4875V21.6438C43.0563 21.9062 42.8688 22.125 42.6125 22.1687L28.4188 24.5312C28.1938 24.5688 28.025 24.7625 28.025 24.9937V27.5C28.025 29.45 26.4375 31.0375 24.4875 31.0375H16.4688C14.5188 31.0375 12.9313 29.45 12.9313 27.5V20.9563H35.7438C36.0063 20.9563 36.2125 20.7438 36.2125 20.4875C36.2125 20.225 36 20.0188 35.7438 20.0188H28.8063C28.5375 19.375 27.8375 17.8063 26.7438 16.2125C24.8563 13.4563 22.6875 12 20.4813 12C18.275 12 16.1 13.4563 14.2063 16.2125C12.8125 18.2375 12.0563 20.2375 12.025 20.3188V20.325C12.0188 20.3375 12.0188 20.35 12.0125 20.3625C12.0125 20.3688 12.0125 20.3687 12.0063 20.375C12 20.3875 12 20.4 12 20.4187C12 20.425 12 20.425 12 20.4312C12 20.45 12 20.4688 12 20.4812V27.5C12 29.9688 14.0063 31.975 16.475 31.975H24.4938C26.9625 31.975 28.9688 29.9688 28.9688 27.5V25.3938L42.7688 23.0938C43.4813 22.975 44 22.3625 44 21.6438V21.4875C43.9938 20.675 43.3313 20.0188 42.525 20.0188ZM20.4813 12.9375C24.3125 12.9375 26.9688 18.1687 27.7938 20.0125H13.1688C13.9875 18.1687 16.6438 12.9375 20.4813 12.9375Z" fill="black"/>
</symbol>

<symbol id="pumpkin">
<path d="M63.52 16.872L63.424 18.12L61.568 18.024H60.704L60.624 23.768L60.704 27H59.04L59.136 23.912L59.056 18.024H58.192L56.304 18.12L56.192 17.976L56.32 16.728H63.424L63.52 16.872ZM71.8064 23.768L71.8544 27H70.2544L70.3184 23.912L70.2704 19.736L71.8704 19.592L71.8064 23.768ZM67.0224 22.472C67.7797 22.472 68.3557 22.6427 68.7504 22.984C69.1557 23.3253 69.3584 23.8213 69.3584 24.472C69.3584 25.272 69.081 25.896 68.5264 26.344C67.9717 26.7813 67.1984 27 66.2064 27H63.9344L63.9984 23.912L63.9504 19.624H65.5504L65.5024 22.472H67.0224ZM66.6224 25.992C67.0064 25.928 67.2997 25.784 67.5024 25.56C67.705 25.3253 67.8064 25.0213 67.8064 24.648C67.8064 24.264 67.6997 23.9653 67.4864 23.752C67.273 23.5387 66.9744 23.4373 66.5904 23.448L65.4864 23.464V23.768L65.5184 25.96L66.6224 25.992ZM74.2011 23.912L74.1531 19.736L75.7531 19.592L75.6891 23.768L75.7371 27H74.1371L74.2011 23.912ZM77.4651 22.984C78.3611 24.2213 79.3318 25.464 80.3771 26.712L80.3611 26.904C80.0838 26.9787 79.7851 27.032 79.4651 27.064C79.1451 27.1067 78.9531 27.1333 78.8891 27.144L78.7291 27.08C77.5665 25.608 76.6225 24.2907 75.8971 23.128V23.016L78.0571 20.328L78.4571 19.624H80.1691L77.4651 22.984ZM85.9553 23.176C87.0006 23.4107 87.5233 23.9867 87.5233 24.904C87.5233 25.64 87.2299 26.184 86.6433 26.536C86.0673 26.8773 85.2086 27.048 84.0673 27.048C83.3313 27.048 82.5526 27.032 81.7313 27L81.7953 23.912L81.7473 19.624L84.6113 19.608C85.4433 19.608 86.0833 19.768 86.5313 20.088C86.9793 20.3973 87.2033 20.8453 87.2033 21.432C87.2033 21.816 87.0966 22.1573 86.8833 22.456C86.6699 22.7547 86.3606 22.9947 85.9553 23.176ZM85.7153 21.624C85.7153 21.2827 85.5819 21.0267 85.3153 20.856C85.0486 20.6853 84.6379 20.6 84.0833 20.6C83.7313 20.6 83.4593 20.6053 83.2673 20.616L83.2193 22.776L84.5953 22.824C84.9579 22.7493 85.2353 22.6107 85.4273 22.408C85.6193 22.2053 85.7153 21.944 85.7153 21.624ZM84.2433 26.088C84.8193 26.088 85.2619 25.9813 85.5713 25.768C85.8806 25.5547 86.0353 25.2453 86.0353 24.84C86.0353 24.232 85.6193 23.8747 84.7873 23.768L83.2033 23.784L83.2353 26.04C83.5766 26.072 83.9126 26.088 84.2433 26.088ZM89.9498 25.272C90.2164 25.272 90.4244 25.352 90.5738 25.512C90.7231 25.6613 90.7978 25.8747 90.7978 26.152C90.7978 26.44 90.7178 26.6693 90.5578 26.84C90.3978 27.0107 90.1791 27.096 89.9018 27.096C89.6244 27.096 89.4058 27.016 89.2458 26.856C89.0964 26.696 89.0218 26.4773 89.0218 26.2C89.0218 25.9227 89.1018 25.6987 89.2618 25.528C89.4324 25.3573 89.6618 25.272 89.9498 25.272ZM98.2325 19.48C98.5738 19.48 98.9205 19.5173 99.2725 19.592C99.6245 19.6667 99.9338 19.768 100.201 19.896L99.9285 21.256L99.7685 21.32C99.2032 20.9893 98.6805 20.824 98.2005 20.824C97.6352 20.824 97.1925 21.0373 96.8725 21.464C96.5525 21.8907 96.3925 22.488 96.3925 23.256C96.3925 24.0773 96.5578 24.7173 96.8885 25.176C97.2192 25.624 97.6885 25.848 98.2965 25.848C98.8298 25.848 99.4005 25.688 100.009 25.368L100.153 25.464L99.9925 26.776C99.3418 27.0213 98.6912 27.144 98.0405 27.144C97.0378 27.144 96.2538 26.8133 95.6885 26.152C95.1338 25.48 94.8565 24.5573 94.8565 23.384C94.8565 22.168 95.1552 21.2133 95.7525 20.52C96.3498 19.8267 97.1765 19.48 98.2325 19.48ZM107.262 23.384L102.766 23.4C102.776 24.2107 102.974 24.8293 103.358 25.256C103.742 25.672 104.286 25.88 104.99 25.88C105.726 25.88 106.446 25.6613 107.15 25.224L107.31 25.32L107.07 26.632C106.291 26.9733 105.534 27.144 104.798 27.144C103.699 27.144 102.835 26.808 102.206 26.136C101.587 25.4533 101.278 24.5253 101.278 23.352C101.278 22.168 101.587 21.2293 102.206 20.536C102.824 19.8427 103.662 19.496 104.718 19.496C105.614 19.496 106.302 19.7413 106.782 20.232C107.272 20.7227 107.518 21.416 107.518 22.312C107.518 22.5573 107.491 22.8507 107.438 23.192L107.262 23.384ZM106.046 22.12C106.046 21.6187 105.928 21.24 105.694 20.984C105.47 20.728 105.139 20.6 104.702 20.6C104.211 20.6 103.806 20.76 103.486 21.08C103.166 21.3893 102.952 21.832 102.846 22.408L106.014 22.344L106.046 22.12ZM109.82 19.624H111.436L111.788 20.728L113.084 24.36H113.196L114.604 20.728L114.972 19.624H116.556L117.244 27H115.948L115.82 24.696L115.548 21.752H115.436L113.628 26.216H112.508L110.844 21.752H110.748L110.444 24.488L110.252 27H109.02L109.82 19.624ZM124.637 23.384L120.141 23.4C120.151 24.2107 120.349 24.8293 120.733 25.256C121.117 25.672 121.661 25.88 122.365 25.88C123.101 25.88 123.821 25.6613 124.525 25.224L124.685 25.32L124.445 26.632C123.666 26.9733 122.909 27.144 122.173 27.144C121.074 27.144 120.21 26.808 119.581 26.136C118.962 25.4533 118.653 24.5253 118.653 23.352C118.653 22.168 118.962 21.2293 119.581 20.536C120.199 19.8427 121.037 19.496 122.093 19.496C122.989 19.496 123.677 19.7413 124.157 20.232C124.647 20.7227 124.893 21.416 124.893 22.312C124.893 22.5573 124.866 22.8507 124.813 23.192L124.637 23.384ZM123.421 22.12C123.421 21.6187 123.303 21.24 123.069 20.984C122.845 20.728 122.514 20.6 122.077 20.6C121.586 20.6 121.181 20.76 120.861 21.08C120.541 21.3893 120.327 21.832 120.221 22.408L123.389 22.344L123.421 22.12ZM131.867 23.768L131.931 27H130.331L130.395 23.912V23.88H130.283C129.813 24.2533 129.275 24.5413 128.667 24.744C127.781 24.744 127.141 24.5733 126.747 24.232C126.363 23.8907 126.165 23.3307 126.155 22.552L126.107 19.624H127.707L127.659 22.2C127.659 22.6373 127.749 22.9573 127.931 23.16C128.112 23.3627 128.395 23.464 128.779 23.464C129.323 23.464 129.856 23.24 130.379 22.792L130.347 19.624H131.947L131.867 23.768ZM134.248 23.912L134.2 19.736L135.8 19.592L135.736 23.768L135.784 27H134.184L134.248 23.912ZM137.512 22.984C138.408 24.2213 139.379 25.464 140.424 26.712L140.408 26.904C140.131 26.9787 139.832 27.032 139.512 27.064C139.192 27.1067 139 27.1333 138.936 27.144L138.776 27.08C137.613 25.608 136.669 24.2907 135.944 23.128V23.016L138.104 20.328L138.504 19.624H140.216L137.512 22.984ZM141.842 23.912L141.778 19.656L143.362 19.592L143.33 24.744H143.426L146.386 19.624H147.986L147.922 23.72L147.986 27H146.402L146.45 24.024L146.466 21.784H146.354L143.346 27H141.778L141.842 23.912Z" fill="black"/>
<path d="M213.789 18.968C214.429 18.968 214.952 19.1333 215.357 19.464C215.773 19.784 215.981 20.2107 215.981 20.744C215.981 21.1707 215.832 21.6507 215.533 22.184C215.235 22.7067 214.76 23.3467 214.109 24.104L212.493 25.944L212.525 26.008H215.485L216.829 25.912L216.925 25.992L216.749 27.064L215.117 27H211.533L210.941 27.032L210.861 26.968V26.168L213.085 23.752C213.661 23.112 214.083 22.584 214.349 22.168C214.616 21.7413 214.749 21.368 214.749 21.048C214.749 20.76 214.643 20.5253 214.429 20.344C214.216 20.152 213.917 20.056 213.533 20.056C213.149 20.056 212.765 20.152 212.381 20.344C212.008 20.536 211.667 20.8027 211.357 21.144H211.197L210.989 20.168C211.405 19.784 211.853 19.4907 212.333 19.288C212.813 19.0747 213.299 18.968 213.789 18.968ZM221.711 18.936C222.788 18.936 223.62 19.288 224.207 19.992C224.804 20.6853 225.103 21.6773 225.103 22.968C225.103 24.2907 224.793 25.3147 224.175 26.04C223.556 26.7547 222.681 27.112 221.551 27.112C220.463 27.112 219.62 26.7653 219.023 26.072C218.436 25.3787 218.143 24.3973 218.143 23.128C218.143 21.784 218.452 20.7493 219.071 20.024C219.689 19.2987 220.569 18.936 221.711 18.936ZM221.599 20.104C220.788 20.104 220.175 20.3493 219.759 20.84C219.353 21.3307 219.151 22.0613 219.151 23.032C219.151 24.0133 219.359 24.7547 219.775 25.256C220.191 25.7467 220.804 25.992 221.615 25.992C222.425 25.992 223.039 25.752 223.455 25.272C223.881 24.7813 224.095 24.0613 224.095 23.112C224.095 22.12 223.881 21.3733 223.455 20.872C223.039 20.36 222.42 20.104 221.599 20.104ZM234.068 19.752L233.972 20.6L232.308 20.568H231.028L230.996 23.784L231.044 27H229.796L229.86 23.896L229.812 19.672H233.988L234.068 19.752Z" fill="black"/>
<g clip-path="url(#clip0_2_1336)">
<path d="M38.4822 20.1448L38.3037 19.4356L37.6462 19.971C37.4114 19.3135 37.1624 18.919 37.0497 18.7546L36.9229 18.5761L36.7022 18.5573C36.5566 18.5479 36.2372 18.5385 35.7769 18.5949L36.0681 17.7072L35.2556 17.9045C35.0301 17.9608 34.7812 18.0313 34.5135 18.1205C34.5135 18.1205 34.5135 18.1205 34.5135 18.1158C34.6168 12.7616 32.3624 10.3851 32.1041 10.1362C32.0994 10.1315 32.0947 10.1315 32.09 10.1268C32.0853 10.1221 32.0806 10.1127 32.0759 10.108C32.0431 10.0845 32.0102 10.0704 31.9726 10.0516C31.9538 10.0422 31.9397 10.0329 31.9209 10.0235C31.8599 10.0047 31.7941 9.99528 31.7284 9.99998C31.7284 9.99998 31.7284 9.99998 31.7237 9.99998C31.3667 10.0375 28.1213 10.4837 24.8337 14.753C24.6458 15.0395 24.472 15.3401 24.3076 15.6454C22.8141 14.5745 21.6728 14.3021 21.3393 14.2411C21.2031 14.2176 21.0622 14.2552 20.9589 14.3444C20.7898 14.49 19.7847 15.4058 18.991 17.3738C18.9816 17.3972 18.9722 17.416 18.9628 17.4395C18.4932 18.6278 18.0986 20.1824 18 22.1784C18.0376 23.3338 18.216 24.5127 18.5354 25.6775C18.8548 26.8422 19.301 27.946 19.8787 28.9933C21.2219 31.0129 22.4431 31.5154 23.4387 31.5154C24.0305 31.5154 24.5472 31.337 24.9558 31.1961C25.1718 31.1209 26.1065 30.8579 26.2614 30.825C26.7264 31.7691 27.5249 32.1589 28.1072 32.4407C28.3139 32.5393 29.3049 33.1076 29.4975 33.2297C29.9953 33.5585 30.6622 34 31.5875 34C32.4658 34 33.5742 33.6008 34.9879 32.3233C35.7816 31.4779 36.4861 30.5197 37.0826 29.4677C37.6791 28.4203 38.1487 27.3213 38.4775 26.1706C39.0411 23.4184 38.7922 21.3753 38.4822 20.1448ZM35.4528 19.5906C35.8755 19.5013 36.1996 19.4826 36.411 19.4779C36.5331 19.6892 36.7115 20.0556 36.8759 20.591L34.4947 22.5166L35.4528 19.5906ZM30.62 11.2493C30.2489 11.8035 29.8779 12.4329 29.4834 13.189C29.3659 13.4145 29.4505 13.6963 29.6759 13.8184C29.7464 13.8559 29.8215 13.87 29.892 13.87C30.0611 13.87 30.2207 13.7808 30.3053 13.6211C30.8313 12.6207 31.3057 11.8552 31.7941 11.2023C32.4282 12.0383 33.6587 14.1706 33.5836 18.0595C33.5695 18.2051 33.5507 18.3507 33.5272 18.4963C33.5131 18.501 33.5037 18.5057 33.4896 18.515C33.3675 18.5714 33.2407 18.6278 33.1092 18.6935C33.0247 18.7358 32.9401 18.7781 32.8556 18.8203C32.8086 18.8438 32.7569 18.872 32.71 18.8955C32.2356 19.1491 31.7659 19.4356 31.2963 19.7597C31.2634 19.7785 31.2352 19.8019 31.2023 19.8254C31.0943 19.9006 30.9863 19.9804 30.8783 20.0603C30.8313 20.0931 30.789 20.126 30.7421 20.1636C30.6434 20.2387 30.5448 20.3139 30.4462 20.3937C30.3851 20.4454 30.3194 20.497 30.2536 20.5487C30.1691 20.6145 30.0892 20.6849 30.0047 20.7554C29.8544 20.8822 29.7041 21.0137 29.5538 21.1499C29.3566 21.3612 29.164 21.5773 28.9761 21.8027C28.591 22.2677 28.2294 22.7608 27.8959 23.2822C27.7456 23.517 27.6 23.7565 27.4591 24.0008C27.4403 24.0336 27.4215 24.0712 27.4027 24.1041C27.2431 24.3859 27.0975 24.6724 26.9566 24.9636C26.9519 24.9683 26.9519 24.9777 26.9472 24.9871L26.9378 25.0105C26.9331 25.0199 26.9284 25.0293 26.9237 25.0387C26.9096 25.0716 26.8908 25.1092 26.8767 25.142C27.2431 22.1456 27.9147 19.3323 28.8869 16.7726C28.9761 16.533 28.8587 16.2653 28.6145 16.1714C28.375 16.0822 28.1025 16.1996 28.0133 16.4438C26.9894 19.1538 26.2849 22.1362 25.9186 25.3158C25.8341 25.2923 25.7542 25.2642 25.665 25.2407C24.6411 24.9542 23.3636 24.6019 23.4247 21.4927C23.5327 20.4125 23.7816 19.3229 24.1573 18.252C24.3546 17.6884 24.5988 17.1201 24.8806 16.5565C24.8806 16.5518 24.8806 16.5518 24.8853 16.5471C25.1061 16.1103 25.3409 15.6876 25.5945 15.2931C27.553 12.7569 29.4364 11.6955 30.62 11.2493ZM25.9796 29.9327C25.8012 29.9749 24.9605 30.2098 24.6552 30.3178C23.6501 30.6653 22.4008 31.1021 20.6771 28.5143C20.1511 27.5655 19.7331 26.5276 19.4372 25.4332C19.1366 24.3389 18.9675 23.2352 18.9346 22.1878C19.0239 20.4501 19.3432 19.088 19.7331 18.0313C20.4329 17.9984 21.1327 17.9045 21.809 17.7354C22.0579 17.6743 22.2129 17.4207 22.1472 17.1718C22.0861 16.9229 21.8325 16.7679 21.5836 16.8289C21.1092 16.9464 20.6254 17.0215 20.137 17.0685C20.6254 16.0681 21.1374 15.4716 21.4004 15.2039C21.8231 15.3119 22.7342 15.6266 23.8849 16.4767C23.8708 16.5049 23.8614 16.5377 23.8474 16.5659C23.7534 16.7679 23.6595 16.9745 23.575 17.1812C23.4716 17.4348 23.373 17.6837 23.2885 17.9327C22.8892 19.0693 22.6262 20.234 22.5041 21.4223C22.429 25.2876 24.3076 25.8137 25.4254 26.1237C25.6462 26.1847 26.3037 26.4665 26.3178 26.4665C26.3225 26.4665 26.3366 26.4665 26.3366 26.4665C26.3272 26.49 26.3225 26.5182 26.3131 26.5464C26.2239 26.7906 26.1487 27.0254 26.083 27.2509C26.0783 27.2649 26.0783 27.2743 26.0736 27.2884C26.0219 27.5374 25.9843 27.7722 25.9562 27.9976C25.9468 28.0728 25.9421 28.1479 25.9327 28.2231C25.9186 28.3687 25.9045 28.519 25.8951 28.6552C25.8904 28.7303 25.8904 28.7961 25.8904 28.8712C25.8857 29.0121 25.8904 29.1483 25.8951 29.2798C25.8998 29.3315 25.8998 29.3831 25.9045 29.4301C25.9186 29.6039 25.9374 29.7636 25.9656 29.9139C25.975 29.9186 25.975 29.928 25.9796 29.9327ZM37.5804 25.9546C37.2798 26.9972 36.8431 28.0258 36.2795 29.0121C35.7205 29.9984 35.0583 30.9002 34.3444 31.661C32.0102 33.7698 30.9065 33.0419 30.0188 32.4548C29.7511 32.2763 28.807 31.7409 28.5205 31.6C27.9523 31.3229 27.3041 31.0035 26.9988 30.1581C26.9988 30.1487 26.9988 30.1393 26.9941 30.1346C26.7687 29.4865 26.7687 28.5988 26.9894 27.4998C27.0458 27.3025 27.1115 27.1006 27.182 26.9033C27.2431 26.7248 27.3135 26.537 27.3933 26.335C27.5155 26.0203 27.6517 25.7103 27.7926 25.4098C27.802 25.3863 27.816 25.3581 27.816 25.3581C27.816 25.3581 27.816 25.3581 27.816 25.3534C27.9616 25.0434 28.1166 24.7475 28.281 24.4563C28.4125 24.2262 28.5487 24.0008 28.6896 23.78C28.8352 23.5546 28.9855 23.3338 29.1405 23.1225L29.1452 23.1178C29.1452 23.1178 29.1452 23.1178 29.1452 23.1131C29.4834 22.6481 29.8403 22.2066 30.216 21.8074C30.4086 21.6336 30.6012 21.4693 30.789 21.3143C30.8454 21.2673 30.9018 21.225 30.9534 21.1781C31.0943 21.0653 31.2305 20.9573 31.3667 20.8587C31.4231 20.8164 31.4795 20.7741 31.5358 20.7319C31.6814 20.6285 31.8223 20.5252 31.9632 20.4313C32.0055 20.4031 32.0477 20.3749 32.09 20.3467C32.4611 20.1025 32.818 19.8912 33.1609 19.708C33.2313 19.6704 33.3018 19.6375 33.3675 19.6047C33.4661 19.5577 33.5648 19.506 33.6587 19.4591C33.7761 19.4027 33.8935 19.3511 34.011 19.3041C34.2317 19.2102 34.4477 19.1256 34.645 19.0552L32.6254 25.2313L37.726 21.1029C37.9233 22.2536 37.9937 23.888 37.5804 25.9546Z" fill="black"/>
<path d="M31.5827 21.9389C31.4371 22.0235 28.0461 24.1135 27.8301 28.3311C27.816 28.5894 28.0132 28.8055 28.2715 28.8196C28.2809 28.8196 28.2856 28.8196 28.295 28.8196C28.5392 28.8196 28.7459 28.627 28.76 28.3781C28.9479 24.6677 32.0289 22.7562 32.0617 22.7374C32.2825 22.6059 32.3529 22.3194 32.2214 22.0986C32.0899 21.8779 31.8034 21.8074 31.5827 21.9389Z" fill="black"/>
</g>
</symbol>

<symbol id="sugar">
<path d="M61.392 21.64C62.7893 21.992 63.488 22.8133 63.488 24.104C63.488 25.0427 63.1307 25.784 62.416 26.328C61.7013 26.872 60.7307 27.144 59.504 27.144C58.9493 27.144 58.4213 27.08 57.92 26.952C57.4187 26.824 56.992 26.6427 56.64 26.408L56.944 24.968L57.088 24.92C57.4187 25.1867 57.792 25.3947 58.208 25.544C58.6347 25.6933 59.0613 25.768 59.488 25.768C60.1813 25.768 60.7413 25.6027 61.168 25.272C61.6053 24.9413 61.824 24.5093 61.824 23.976C61.824 23.5493 61.6907 23.1973 61.424 22.92C61.1573 22.6427 60.784 22.456 60.304 22.36H58.144L58.016 22.232L58.128 21.096L60.192 21.128C60.5333 20.9787 60.8053 20.7493 61.008 20.44C61.2213 20.1307 61.328 19.7893 61.328 19.416C61.328 18.4987 60.7307 18.04 59.536 18.04C58.704 18.04 57.8453 18.312 56.96 18.856L56.768 18.776L56.912 17.32C57.7547 16.8507 58.6507 16.616 59.6 16.616C60.656 16.616 61.488 16.8453 62.096 17.304C62.704 17.752 63.008 18.3707 63.008 19.16C63.008 19.704 62.864 20.1947 62.576 20.632C62.2987 21.0693 61.904 21.4053 61.392 21.64ZM68.0569 19.48C68.7929 19.48 69.3742 19.656 69.8009 20.008C70.2275 20.36 70.4409 20.8507 70.4409 21.48C70.4409 21.672 70.4089 22.312 70.3449 23.4C70.2809 24.4667 70.2489 25.0907 70.2489 25.272C70.2489 25.4747 70.2809 25.6187 70.3449 25.704C70.4195 25.7787 70.5422 25.816 70.7129 25.816C70.8195 25.816 70.9795 25.7947 71.1929 25.752L71.3369 25.864L71.1769 26.76C70.8675 26.952 70.5315 27.0693 70.1689 27.112C69.8382 27.08 69.5715 26.9627 69.3689 26.76C69.1662 26.5467 69.0435 26.2693 69.0009 25.928H68.8889C68.3449 26.504 67.7902 26.904 67.2249 27.128C66.4889 27.1173 65.9075 26.9253 65.4809 26.552C65.0649 26.1787 64.8569 25.672 64.8569 25.032C64.8569 24.0827 65.3742 23.4907 66.4089 23.256L68.9369 22.696L68.9529 21.832C68.9529 21.4373 68.8515 21.1387 68.6489 20.936C68.4569 20.7333 68.1742 20.632 67.8009 20.632C67.4382 20.632 67.0755 20.7173 66.7129 20.888C66.3502 21.048 65.9502 21.304 65.5129 21.656L65.3849 21.576L65.1769 20.44C66.1155 19.8 67.0755 19.48 68.0569 19.48ZM66.8569 24.136C66.6649 24.1787 66.5262 24.2533 66.4409 24.36C66.3555 24.456 66.3129 24.6107 66.3129 24.824C66.3129 25.144 66.3982 25.3947 66.5689 25.576C66.7502 25.7573 66.9902 25.848 67.2889 25.848C67.7902 25.848 68.3235 25.5227 68.8889 24.872L68.9369 23.64L66.8569 24.136ZM73.2258 19.624H74.8418L75.1938 20.728L76.4898 24.36H76.6018L78.0098 20.728L78.3778 19.624H79.9618L80.6498 27H79.3538L79.2258 24.696L78.9538 21.752H78.8418L77.0338 26.216H75.9138L74.2498 21.752H74.1538L73.8498 24.488L73.6578 27H72.4258L73.2258 19.624ZM83.4029 25.272C83.6695 25.272 83.8775 25.352 84.0269 25.512C84.1762 25.6613 84.2509 25.8747 84.2509 26.152C84.2509 26.44 84.1709 26.6693 84.0109 26.84C83.8509 27.0107 83.6322 27.096 83.3549 27.096C83.0775 27.096 82.8589 27.016 82.6989 26.856C82.5495 26.696 82.4749 26.4773 82.4749 26.2C82.4749 25.9227 82.5549 25.6987 82.7149 25.528C82.8855 25.3573 83.1149 25.272 83.4029 25.272ZM91.6856 19.48C92.027 19.48 92.3736 19.5173 92.7256 19.592C93.0776 19.6667 93.387 19.768 93.6536 19.896L93.3816 21.256L93.2216 21.32C92.6563 20.9893 92.1336 20.824 91.6536 20.824C91.0883 20.824 90.6456 21.0373 90.3256 21.464C90.0056 21.8907 89.8456 22.488 89.8456 23.256C89.8456 24.0773 90.011 24.7173 90.3416 25.176C90.6723 25.624 91.1416 25.848 91.7496 25.848C92.283 25.848 92.8536 25.688 93.4616 25.368L93.6056 25.464L93.4456 26.776C92.795 27.0213 92.1443 27.144 91.4936 27.144C90.491 27.144 89.707 26.8133 89.1416 26.152C88.587 25.48 88.3096 24.5573 88.3096 23.384C88.3096 22.168 88.6083 21.2133 89.2056 20.52C89.803 19.8267 90.6296 19.48 91.6856 19.48ZM97.8225 19.48C98.5585 19.48 99.1398 19.656 99.5665 20.008C99.9932 20.36 100.207 20.8507 100.207 21.48C100.207 21.672 100.175 22.312 100.111 23.4C100.047 24.4667 100.015 25.0907 100.015 25.272C100.015 25.4747 100.047 25.6187 100.111 25.704C100.185 25.7787 100.308 25.816 100.479 25.816C100.585 25.816 100.745 25.7947 100.959 25.752L101.103 25.864L100.943 26.76C100.633 26.952 100.297 27.0693 99.9345 27.112C99.6038 27.08 99.3372 26.9627 99.1345 26.76C98.9318 26.5467 98.8092 26.2693 98.7665 25.928H98.6545C98.1105 26.504 97.5558 26.904 96.9905 27.128C96.2545 27.1173 95.6732 26.9253 95.2465 26.552C94.8305 26.1787 94.6225 25.672 94.6225 25.032C94.6225 24.0827 95.1398 23.4907 96.1745 23.256L98.7025 22.696L98.7185 21.832C98.7185 21.4373 98.6172 21.1387 98.4145 20.936C98.2225 20.7333 97.9398 20.632 97.5665 20.632C97.2038 20.632 96.8412 20.7173 96.4785 20.888C96.1158 21.048 95.7158 21.304 95.2785 21.656L95.1505 21.576L94.9425 20.44C95.8812 19.8 96.8412 19.48 97.8225 19.48ZM96.6225 24.136C96.4305 24.1787 96.2918 24.2533 96.2065 24.36C96.1212 24.456 96.0785 24.6107 96.0785 24.824C96.0785 25.144 96.1638 25.3947 96.3345 25.576C96.5158 25.7573 96.7558 25.848 97.0545 25.848C97.5558 25.848 98.0892 25.5227 98.6545 24.872L98.7025 23.64L96.6225 24.136ZM103.9 20.36L105.212 22.344L106.444 20.328L106.828 19.624H108.284L106.076 23.24L108.428 26.936L106.716 27.08L106.364 26.248L105.004 24.184L103.644 26.328L103.308 27H101.852L104.108 23.272L101.852 19.672L103.58 19.576L103.9 20.36ZM112.213 19.48C112.949 19.48 113.53 19.656 113.957 20.008C114.384 20.36 114.597 20.8507 114.597 21.48C114.597 21.672 114.565 22.312 114.501 23.4C114.437 24.4667 114.405 25.0907 114.405 25.272C114.405 25.4747 114.437 25.6187 114.501 25.704C114.576 25.7787 114.698 25.816 114.869 25.816C114.976 25.816 115.136 25.7947 115.349 25.752L115.493 25.864L115.333 26.76C115.024 26.952 114.688 27.0693 114.325 27.112C113.994 27.08 113.728 26.9627 113.525 26.76C113.322 26.5467 113.2 26.2693 113.157 25.928H113.045C112.501 26.504 111.946 26.904 111.381 27.128C110.645 27.1173 110.064 26.9253 109.637 26.552C109.221 26.1787 109.013 25.672 109.013 25.032C109.013 24.0827 109.53 23.4907 110.565 23.256L113.093 22.696L113.109 21.832C113.109 21.4373 113.008 21.1387 112.805 20.936C112.613 20.7333 112.33 20.632 111.957 20.632C111.594 20.632 111.232 20.7173 110.869 20.888C110.506 21.048 110.106 21.304 109.669 21.656L109.541 21.576L109.333 20.44C110.272 19.8 111.232 19.48 112.213 19.48ZM111.013 24.136C110.821 24.1787 110.682 24.2533 110.597 24.36C110.512 24.456 110.469 24.6107 110.469 24.824C110.469 25.144 110.554 25.3947 110.725 25.576C110.906 25.7573 111.146 25.848 111.445 25.848C111.946 25.848 112.48 25.5227 113.045 24.872L113.093 23.64L111.013 24.136ZM120.643 19.544C121.56 19.544 122.264 19.8533 122.755 20.472C123.256 21.08 123.507 21.9547 123.507 23.096C123.507 24.3867 123.192 25.384 122.563 26.088C121.934 26.792 121.038 27.144 119.875 27.144C119.502 27.144 119.086 27.1013 118.627 27.016L118.675 29.96H117.059L117.171 23.912L117.059 19.736L118.627 19.592L118.611 20.648H118.723C119.064 20.3493 119.379 20.12 119.667 19.96C119.955 19.8 120.28 19.6613 120.643 19.544ZM120.003 26.024C120.643 26.024 121.134 25.7947 121.475 25.336C121.816 24.8773 121.987 24.2213 121.987 23.368C121.987 22.5573 121.848 21.9387 121.571 21.512C121.294 21.0747 120.894 20.856 120.371 20.856C120.083 20.856 119.795 20.936 119.507 21.096C119.23 21.2453 118.926 21.4853 118.595 21.816L118.579 23.768L118.611 25.672C119.112 25.9067 119.576 26.024 120.003 26.024ZM127.838 19.48C128.574 19.48 129.155 19.656 129.582 20.008C130.009 20.36 130.222 20.8507 130.222 21.48C130.222 21.672 130.19 22.312 130.126 23.4C130.062 24.4667 130.03 25.0907 130.03 25.272C130.03 25.4747 130.062 25.6187 130.126 25.704C130.201 25.7787 130.323 25.816 130.494 25.816C130.601 25.816 130.761 25.7947 130.974 25.752L131.118 25.864L130.958 26.76C130.649 26.952 130.313 27.0693 129.95 27.112C129.619 27.08 129.353 26.9627 129.15 26.76C128.947 26.5467 128.825 26.2693 128.782 25.928H128.67C128.126 26.504 127.571 26.904 127.006 27.128C126.27 27.1173 125.689 26.9253 125.262 26.552C124.846 26.1787 124.638 25.672 124.638 25.032C124.638 24.0827 125.155 23.4907 126.19 23.256L128.718 22.696L128.734 21.832C128.734 21.4373 128.633 21.1387 128.43 20.936C128.238 20.7333 127.955 20.632 127.582 20.632C127.219 20.632 126.857 20.7173 126.494 20.888C126.131 21.048 125.731 21.304 125.294 21.656L125.166 21.576L124.958 20.44C125.897 19.8 126.857 19.48 127.838 19.48ZM126.638 24.136C126.446 24.1787 126.307 24.2533 126.222 24.36C126.137 24.456 126.094 24.6107 126.094 24.824C126.094 25.144 126.179 25.3947 126.35 25.576C126.531 25.7573 126.771 25.848 127.07 25.848C127.571 25.848 128.105 25.5227 128.67 24.872L128.718 23.64L126.638 24.136Z" fill="black"/>
<path d="M223.773 25.768H223.741L223.789 28.376L223.709 28.472L222.749 28.552L222.669 28.456L222.701 25.768H219.709L218.653 25.8L218.573 25.672V24.856L222.589 19.032H223.757L223.725 24.776H225.229L225.325 24.904L225.245 25.8L223.773 25.768ZM222.717 24.776V20.568H222.605L219.693 24.776H222.717ZM234.068 19.752L233.972 20.6L232.308 20.568H231.028L230.996 23.784L231.044 27H229.796L229.86 23.896L229.812 19.672H233.988L234.068 19.752Z" fill="black"/>
<path d="M16.1876 31.5505C19.6678 33.7268 19.438 33.6142 19.6021 33.6142C19.7663 33.6142 19.5599 33.708 22.8056 31.6865C26.0559 33.7174 25.8495 33.6142 26.009 33.6142C26.1685 33.6142 26.009 33.6846 28.6261 32.0477C28.8138 31.9304 28.87 31.6818 28.7528 31.4942C28.6355 31.3066 28.3869 31.2503 28.1993 31.3676L26.0043 32.7418L23.2042 30.9924V28.2345L24.6676 27.3199C24.8552 27.2027 24.9115 26.9541 24.7942 26.7665C24.677 26.5789 24.4284 26.5226 24.2408 26.6398L22.8056 27.5404L20.0055 25.7909V23.033L22.8056 21.2836C24.3674 22.2591 24.2642 22.2122 24.3768 22.231C24.5644 22.2638 24.752 22.1653 24.8224 21.9871C24.8927 21.8089 24.827 21.6072 24.6676 21.504L23.2042 20.5894V17.8315L26.0043 16.0821L28.8044 17.8315V18.4084C28.8044 18.6289 28.9826 18.8071 29.203 18.8071C29.4235 18.8071 29.6017 18.6289 29.6017 18.4084V17.8315L32.4018 16.0821L35.2019 17.8315V20.8098C35.2019 21.0303 35.3801 21.2085 35.6005 21.2085C35.821 21.2085 35.9992 21.0303 35.9992 20.8098V17.6064C35.9992 17.4704 35.9289 17.3391 35.8116 17.2687L32.7958 15.3832V12.4002C32.7958 12.2642 32.7254 12.1329 32.6082 12.0625L29.4188 10.0598C29.2875 9.98007 29.1233 9.98007 28.9967 10.0598L26.009 11.9265L23.0166 10.0598C22.8853 9.98007 22.7211 9.98007 22.5945 10.0598L19.391 12.0625C19.2738 12.1376 19.2034 12.2642 19.2034 12.4002V15.3785L16.1876 17.264C16.0704 17.3391 16 17.4657 16 17.6017V20.8052C16 20.9412 16.0704 21.0725 16.1876 21.1429L19.2034 23.0283V25.7862L16.1876 27.6717C16.0704 27.7467 16 27.8734 16 28.0094V31.2128C16 31.3488 16.0704 31.4755 16.1876 31.5505ZM29.2077 10.8712L32.0078 12.6207V15.3785L29.2077 17.128L26.4077 15.3785V12.6207L29.2077 10.8712ZM22.8056 10.8712L25.6056 12.6207V15.3785L22.8056 17.128L20.0055 15.3785V12.6207L22.8056 10.8712ZM16.802 17.8269L19.6021 16.0774L22.4022 17.8269V20.5847L19.6021 22.3342L16.802 20.5847V17.8269ZM16.802 28.2298L19.6021 26.4804L22.4022 28.2298V30.9877L19.6021 32.7372L16.802 30.9877V28.2298Z" fill="black"/>
<path d="M34.4092 22.0105V21.6072C34.4092 20.9083 34.0996 20.2423 33.5696 19.7827L33.9683 18.9806C34.0668 18.7836 33.9824 18.5444 33.7854 18.4459C33.5884 18.3474 33.3492 18.4272 33.2507 18.6242L32.8802 19.3699C32.322 19.1495 31.6982 19.1495 31.1354 19.3699L30.7649 18.6242C30.7039 18.4928 30.5726 18.4084 30.4318 18.399C30.2864 18.3896 30.1504 18.46 30.0707 18.5773C29.991 18.6992 29.9816 18.8493 30.0472 18.9806L30.4459 19.7827C29.9112 20.2376 29.6017 20.9036 29.6017 21.6072V22.0105C29.2358 22.0058 28.8419 22.0058 28.401 22.0058C26.2763 22.0058 23.9968 22.972 23.9968 24.4072C23.9968 26.1332 27.2472 27.0385 28.8653 26.7664C28.8278 27.0854 28.7996 27.5216 28.7996 27.8124C28.7996 30.6124 30.0003 32.8497 31.5997 33.1733V33.6189C31.5997 33.8393 31.7779 34.0176 31.9984 34.0176C32.2188 34.0176 32.3971 33.8393 32.3971 33.6189V33.1686C33.9964 32.845 35.1971 30.6077 35.1971 27.8077C35.1971 27.5216 35.169 27.0807 35.1315 26.7664C36.7684 27.0385 40 26.1239 40 24.4072C40 22.972 37.7252 22.0058 35.5958 22.0058C35.1924 22.0058 34.7844 22.0058 34.4092 22.0105ZM30.4084 21.6072C30.4084 20.7207 31.126 20.0078 32.0078 20.0078C32.8942 20.0078 33.6071 20.7254 33.6071 21.6072V22.0293C33.0678 22.0199 32.5237 22.0996 32.0078 22.2591C31.4918 22.0903 30.9478 22.0152 30.4037 22.0293V21.6072H30.4084ZM32.0125 24.1587C32.2001 24.5339 32.4299 24.8856 32.7019 25.2046H31.3183C31.5856 24.8856 31.8202 24.5339 32.0125 24.1587ZM24.8035 24.4072C24.8035 23.6849 26.4639 22.8079 28.4057 22.8079C29.2077 22.8079 31.0979 22.7938 31.595 22.9533C31.459 23.9148 30.0613 26.0113 28.4057 26.0113C26.4686 26.0066 24.8035 25.1295 24.8035 24.4072ZM30.4928 26.0066H33.518C33.7619 26.1989 34.0246 26.3631 34.3013 26.4991C34.3154 26.6023 34.3294 26.7055 34.3435 26.8086H31.6091C31.3887 26.8086 31.2104 26.9869 31.2104 27.2073C31.2104 27.4278 31.3887 27.606 31.6091 27.606H34.3998C34.4186 27.8733 34.4139 28.1407 34.3857 28.408H29.6298C29.6017 28.1407 29.597 27.8733 29.6157 27.606H30.005C30.2255 27.606 30.4037 27.4278 30.4037 27.2073C30.4037 26.9869 30.2255 26.8086 30.005 26.8086H29.672C29.6861 26.7008 29.7002 26.5976 29.7142 26.4897C29.9957 26.3584 30.2536 26.1989 30.4928 26.0066ZM30.2067 30.8094H32.0078C32.2282 30.8094 32.4064 30.6312 32.4064 30.4108C32.4064 30.1903 32.2282 30.0121 32.0078 30.0121H29.9112C29.8362 29.7494 29.7752 29.4821 29.7283 29.21H34.2919C34.245 29.4821 34.184 29.7494 34.109 30.0121H33.6118C33.3914 30.0121 33.2132 30.1903 33.2132 30.4108C33.2132 30.6312 33.3914 30.8094 33.6118 30.8094H33.8135C32.8379 32.9435 31.1823 32.9435 30.2067 30.8094ZM39.212 24.4072C39.212 25.4016 36.2384 26.4053 34.8125 25.8518C33.6212 25.289 32.7441 24.229 32.4205 22.9533C32.9974 22.7797 34.7281 22.8079 35.6099 22.8032C37.5516 22.8079 39.212 23.6849 39.212 24.4072Z" fill="black"/>
<symbol>

<symbol id="cacao">
<path d="M59.152 23.768L59.216 27H57.568L57.648 23.912L57.568 16.728H59.232L59.152 23.768ZM60.992 21.56C62.2293 23.224 63.6427 24.92 65.232 26.648L65.216 26.84C64.7467 26.968 64.2187 27.0693 63.632 27.144L63.424 27.048C61.8027 25.064 60.4267 23.2613 59.296 21.64V21.528L62.496 17.656L63.136 16.728H64.944L60.992 21.56ZM69.1194 19.48C69.8554 19.48 70.4367 19.656 70.8634 20.008C71.29 20.36 71.5034 20.8507 71.5034 21.48C71.5034 21.672 71.4714 22.312 71.4074 23.4C71.3434 24.4667 71.3114 25.0907 71.3114 25.272C71.3114 25.4747 71.3434 25.6187 71.4074 25.704C71.482 25.7787 71.6047 25.816 71.7754 25.816C71.882 25.816 72.042 25.7947 72.2554 25.752L72.3994 25.864L72.2394 26.76C71.93 26.952 71.594 27.0693 71.2314 27.112C70.9007 27.08 70.634 26.9627 70.4314 26.76C70.2287 26.5467 70.106 26.2693 70.0634 25.928H69.9514C69.4074 26.504 68.8527 26.904 68.2874 27.128C67.5514 27.1173 66.97 26.9253 66.5434 26.552C66.1274 26.1787 65.9194 25.672 65.9194 25.032C65.9194 24.0827 66.4367 23.4907 67.4714 23.256L69.9994 22.696L70.0154 21.832C70.0154 21.4373 69.914 21.1387 69.7114 20.936C69.5194 20.7333 69.2367 20.632 68.8634 20.632C68.5007 20.632 68.138 20.7173 67.7754 20.888C67.4127 21.048 67.0127 21.304 66.5754 21.656L66.4474 21.576L66.2394 20.44C67.178 19.8 68.138 19.48 69.1194 19.48ZM67.9194 24.136C67.7274 24.1787 67.5887 24.2533 67.5034 24.36C67.418 24.456 67.3754 24.6107 67.3754 24.824C67.3754 25.144 67.4607 25.3947 67.6314 25.576C67.8127 25.7573 68.0527 25.848 68.3514 25.848C68.8527 25.848 69.386 25.5227 69.9514 24.872L69.9994 23.64L67.9194 24.136ZM73.9043 23.912L73.8563 19.736L75.4563 19.592L75.3923 23.768L75.4403 27H73.8403L73.9043 23.912ZM77.1683 22.984C78.0643 24.2213 79.0349 25.464 80.0803 26.712L80.0643 26.904C79.7869 26.9787 79.4883 27.032 79.1683 27.064C78.8483 27.1067 78.6563 27.1333 78.5923 27.144L78.4323 27.08C77.2696 25.608 76.3256 24.2907 75.6003 23.128V23.016L77.7603 20.328L78.1603 19.624H79.8723L77.1683 22.984ZM83.7131 19.48C84.4491 19.48 85.0305 19.656 85.4571 20.008C85.8838 20.36 86.0971 20.8507 86.0971 21.48C86.0971 21.672 86.0651 22.312 86.0011 23.4C85.9371 24.4667 85.9051 25.0907 85.9051 25.272C85.9051 25.4747 85.9371 25.6187 86.0011 25.704C86.0758 25.7787 86.1985 25.816 86.3691 25.816C86.4758 25.816 86.6358 25.7947 86.8491 25.752L86.9931 25.864L86.8331 26.76C86.5238 26.952 86.1878 27.0693 85.8251 27.112C85.4945 27.08 85.2278 26.9627 85.0251 26.76C84.8225 26.5467 84.6998 26.2693 84.6571 25.928H84.5451C84.0011 26.504 83.4465 26.904 82.8811 27.128C82.1451 27.1173 81.5638 26.9253 81.1371 26.552C80.7211 26.1787 80.5131 25.672 80.5131 25.032C80.5131 24.0827 81.0305 23.4907 82.0651 23.256L84.5931 22.696L84.6091 21.832C84.6091 21.4373 84.5078 21.1387 84.3051 20.936C84.1131 20.7333 83.8305 20.632 83.4571 20.632C83.0945 20.632 82.7318 20.7173 82.3691 20.888C82.0065 21.048 81.6065 21.304 81.1691 21.656L81.0411 21.576L80.8331 20.44C81.7718 19.8 82.7318 19.48 83.7131 19.48ZM82.5131 24.136C82.3211 24.1787 82.1825 24.2533 82.0971 24.36C82.0118 24.456 81.9691 24.6107 81.9691 24.824C81.9691 25.144 82.0545 25.3947 82.2251 25.576C82.4065 25.7573 82.6465 25.848 82.9451 25.848C83.4465 25.848 83.9798 25.5227 84.5451 24.872L84.5931 23.64L82.5131 24.136ZM91.375 19.48C92.4097 19.48 93.2043 19.8053 93.759 20.456C94.3243 21.096 94.607 22.008 94.607 23.192C94.607 24.4613 94.3083 25.4373 93.711 26.12C93.1137 26.8027 92.2657 27.144 91.167 27.144C90.1323 27.144 89.3323 26.824 88.767 26.184C88.2123 25.5333 87.935 24.616 87.935 23.432C87.935 22.1627 88.2337 21.1867 88.831 20.504C89.4283 19.8213 90.2763 19.48 91.375 19.48ZM91.279 20.616C90.063 20.616 89.455 21.4373 89.455 23.08C89.455 24.0827 89.6043 24.824 89.903 25.304C90.2017 25.784 90.6603 26.024 91.279 26.024C91.887 26.024 92.3403 25.8213 92.639 25.416C92.9377 25.0107 93.087 24.392 93.087 23.56C93.087 22.5573 92.9377 21.816 92.639 21.336C92.3403 20.856 91.887 20.616 91.279 20.616ZM102.263 19.8C103.233 19.8 103.964 20.0933 104.455 20.68C104.956 21.2667 105.207 22.1307 105.207 23.272C105.207 24.5307 104.913 25.4907 104.327 26.152C103.751 26.8133 102.908 27.144 101.799 27.144C101.031 27.144 100.412 26.9733 99.9428 26.632C99.4734 26.2907 99.1268 25.7573 98.9028 25.032C98.6894 24.296 98.5828 23.336 98.5828 22.152C98.5828 21.1067 98.6681 20.2587 98.8388 19.608C99.0201 18.9467 99.3028 18.4133 99.6868 18.008C100.081 17.6027 100.62 17.2827 101.303 17.048L102.791 16.504C103.132 16.3867 103.431 16.264 103.687 16.136C103.943 16.008 104.215 15.8427 104.503 15.64L104.663 15.72L104.759 17.032C104.311 17.32 103.745 17.5653 103.063 17.768L101.591 18.216C101.068 18.376 100.689 18.6693 100.455 19.096C100.22 19.5227 100.103 20.1147 100.103 20.872V21.144L100.199 21.16C100.785 20.4773 101.473 20.024 102.263 19.8ZM101.911 26.024C102.508 26.024 102.951 25.8267 103.239 25.432C103.537 25.0267 103.687 24.4133 103.687 23.592C103.687 22.7813 103.548 22.1733 103.271 21.768C102.993 21.3627 102.588 21.16 102.055 21.16C101.703 21.16 101.372 21.2507 101.063 21.432C100.753 21.6133 100.433 21.9067 100.103 22.312C100.113 23.2293 100.177 23.96 100.295 24.504C100.412 25.0373 100.599 25.4267 100.855 25.672C101.121 25.9067 101.473 26.024 101.911 26.024ZM109.75 19.48C110.785 19.48 111.579 19.8053 112.134 20.456C112.699 21.096 112.982 22.008 112.982 23.192C112.982 24.4613 112.683 25.4373 112.086 26.12C111.489 26.8027 110.641 27.144 109.542 27.144C108.507 27.144 107.707 26.824 107.142 26.184C106.587 25.5333 106.31 24.616 106.31 23.432C106.31 22.1627 106.609 21.1867 107.206 20.504C107.803 19.8213 108.651 19.48 109.75 19.48ZM109.654 20.616C108.438 20.616 107.83 21.4373 107.83 23.08C107.83 24.0827 107.979 24.824 108.278 25.304C108.577 25.784 109.035 26.024 109.654 26.024C110.262 26.024 110.715 25.8213 111.014 25.416C111.313 25.0107 111.462 24.392 111.462 23.56C111.462 22.5573 111.313 21.816 111.014 21.336C110.715 20.856 110.262 20.616 109.654 20.616ZM118.075 19.8C119.046 19.8 119.777 20.0933 120.267 20.68C120.769 21.2667 121.019 22.1307 121.019 23.272C121.019 24.5307 120.726 25.4907 120.139 26.152C119.563 26.8133 118.721 27.144 117.611 27.144C116.843 27.144 116.225 26.9733 115.755 26.632C115.286 26.2907 114.939 25.7573 114.715 25.032C114.502 24.296 114.395 23.336 114.395 22.152C114.395 21.1067 114.481 20.2587 114.651 19.608C114.833 18.9467 115.115 18.4133 115.499 18.008C115.894 17.6027 116.433 17.2827 117.115 17.048L118.603 16.504C118.945 16.3867 119.243 16.264 119.499 16.136C119.755 16.008 120.027 15.8427 120.315 15.64L120.475 15.72L120.571 17.032C120.123 17.32 119.558 17.5653 118.875 17.768L117.403 18.216C116.881 18.376 116.502 18.6693 116.267 19.096C116.033 19.5227 115.915 20.1147 115.915 20.872V21.144L116.011 21.16C116.598 20.4773 117.286 20.024 118.075 19.8ZM117.723 26.024C118.321 26.024 118.763 25.8267 119.051 25.432C119.35 25.0267 119.499 24.4133 119.499 23.592C119.499 22.7813 119.361 22.1733 119.083 21.768C118.806 21.3627 118.401 21.16 117.867 21.16C117.515 21.16 117.185 21.2507 116.875 21.432C116.566 21.6133 116.246 21.9067 115.915 22.312C115.926 23.2293 115.99 23.96 116.107 24.504C116.225 25.0373 116.411 25.4267 116.667 25.672C116.934 25.9067 117.286 26.024 117.723 26.024ZM130.51 23.768L130.558 27H128.958L129.022 23.912L128.974 19.736L130.574 19.592L130.51 23.768ZM125.726 22.472C126.483 22.472 127.059 22.6427 127.454 22.984C127.859 23.3253 128.062 23.8213 128.062 24.472C128.062 25.272 127.784 25.896 127.23 26.344C126.675 26.7813 125.902 27 124.91 27H122.638L122.702 23.912L122.654 19.624H124.254L124.206 22.472H125.726ZM125.326 25.992C125.71 25.928 126.003 25.784 126.206 25.56C126.408 25.3253 126.51 25.0213 126.51 24.648C126.51 24.264 126.403 23.9653 126.19 23.752C125.976 23.5387 125.678 23.4373 125.294 23.448L124.19 23.464V23.768L124.222 25.96L125.326 25.992Z" fill="black"/>
<path d="M223.773 25.768H223.741L223.789 28.376L223.709 28.472L222.749 28.552L222.669 28.456L222.701 25.768H219.709L218.653 25.8L218.573 25.672V24.856L222.589 19.032H223.757L223.725 24.776H225.229L225.325 24.904L225.245 25.8L223.773 25.768ZM222.717 24.776V20.568H222.605L219.693 24.776H222.717ZM234.068 19.752L233.972 20.6L232.308 20.568H231.028L230.996 23.784L231.044 27H229.796L229.86 23.896L229.812 19.672H233.988L234.068 19.752Z" fill="black"/>
<path d="M27.3672 16.0563C27.2031 15.85 26.9031 15.8172 26.6969 15.9813C26.4484 16.1781 26.1531 16.2859 25.8344 16.2859C25.5156 16.2859 25.2203 16.1828 24.9719 15.9813C24.7656 15.8172 24.4656 15.85 24.3016 16.0563C24.1375 16.2625 24.1703 16.5625 24.3766 16.7266C24.7891 17.0594 25.3094 17.2375 25.8391 17.2375C26.3688 17.2375 26.8891 17.0547 27.3016 16.7266C27.4984 16.5625 27.5313 16.2625 27.3672 16.0563Z" fill="black"/>
<path d="M39.6532 22.8016C39.2688 21.7469 38.6032 20.8422 37.7267 20.1859C37.1032 19.7219 36.3954 19.4031 35.6313 19.2391C35.7954 17.7344 35.3267 16.1734 34.347 14.9875C33.2876 13.7078 31.7642 13 30.0579 13H29.7813C28.586 13 27.4282 13.4219 26.4298 14.2234C26.2563 14.3594 26.0501 14.4344 25.8298 14.4344C25.6095 14.4344 25.4032 14.3594 25.2298 14.2234C24.236 13.4219 23.0782 13 21.8829 13H21.6063C20.3735 13 19.2204 13.375 18.2735 14.0781C17.3923 14.7344 16.7267 15.6344 16.347 16.6938C15.9673 17.7438 15.897 18.8594 16.1548 19.9188C16.4267 21.0625 17.0689 22.0797 18.011 22.8672C18.7282 23.4672 19.5157 23.9828 20.3501 24.4C20.3173 24.9484 20.3642 25.4922 20.4907 26.0266C20.7626 27.1703 21.4048 28.1875 22.347 28.975C24.536 30.8031 27.3157 31.8063 30.1704 31.8063C33.0251 31.8063 35.8048 30.7984 37.9938 28.975C38.936 28.1875 39.5782 27.1703 39.8501 26.0266C40.1032 24.9672 40.0376 23.8516 39.6532 22.8016ZM20.5001 23.4016C19.8345 23.0453 19.2064 22.6188 18.6204 22.1313C16.7923 20.6078 16.7126 18.4891 17.2423 17.0172C17.7767 15.5359 19.2064 13.9563 21.6017 13.9563H21.8782C22.8532 13.9563 23.8048 14.3078 24.6298 14.9688C24.9673 15.2406 25.3938 15.3906 25.8251 15.3906C26.2563 15.3906 26.6829 15.2406 27.0204 14.9688C27.8454 14.3031 28.797 13.9563 29.772 13.9563H30.0485C31.4642 13.9563 32.7251 14.5375 33.6017 15.5969C34.4173 16.5813 34.8017 17.8703 34.6751 19.1125C34.5813 19.1078 34.4829 19.1031 34.3845 19.1031H34.1079C32.9126 19.1031 31.7548 19.525 30.7563 20.3266C30.5829 20.4625 30.3767 20.5375 30.1563 20.5375C29.936 20.5375 29.7298 20.4625 29.5563 20.3266C28.5579 19.525 27.4001 19.1031 26.2048 19.1031H25.9282C24.6954 19.1031 23.547 19.4781 22.5954 20.1813C21.7142 20.8375 21.0485 21.7375 20.6689 22.7969C20.6079 22.9984 20.547 23.2 20.5001 23.4016ZM37.3798 28.2391C35.3642 29.9219 32.8001 30.85 30.1704 30.85C27.5407 30.85 24.972 29.9219 22.9563 28.2391C21.1282 26.7156 21.0485 24.5969 21.5782 23.125C22.1126 21.6438 23.5423 20.0641 25.9376 20.0641H26.2142C27.1892 20.0641 28.1407 20.4156 28.9657 21.0766C29.3032 21.3484 29.7298 21.4984 30.161 21.4984C30.5923 21.4984 31.0188 21.3484 31.3563 21.0766C32.1813 20.4109 33.1329 20.0641 34.1079 20.0641H34.3845C36.7798 20.0641 38.2095 21.6484 38.7438 23.125C39.2876 24.5969 39.2079 26.7156 37.3798 28.2391Z" fill="black"/>
<path d="M31.6235 22.0985C31.4595 21.8922 31.1595 21.8594 30.9532 22.0235C30.7048 22.2204 30.4095 22.3282 30.0907 22.3282C29.772 22.3282 29.4767 22.2251 29.2282 22.0235C29.022 21.8594 28.722 21.8922 28.5579 22.0985C28.3939 22.3047 28.4267 22.6047 28.6329 22.7688C29.0454 23.1016 29.5657 23.2797 30.0954 23.2797C30.6251 23.2797 31.1454 23.0969 31.5579 22.7688C31.7595 22.6047 31.7923 22.3047 31.6235 22.0985Z" fill="black"/>
<path d="M35.3174 28.4453C35.1955 28.2109 34.9096 28.1172 34.6752 28.239C33.2736 28.9562 31.7596 29.3219 30.1705 29.3219C29.908 29.3219 29.6924 29.5375 29.6924 29.8C29.6924 30.0625 29.908 30.2781 30.1705 30.2781C31.9096 30.2781 33.5736 29.8797 35.1111 29.0875C35.3455 28.9703 35.4346 28.6797 35.3174 28.4453Z" fill="black"/>
<path d="M37.1689 27.0953C37.0002 26.8937 36.7002 26.8656 36.4939 27.0344C36.3814 27.1281 36.2689 27.2172 36.1564 27.3062C35.9455 27.4656 35.908 27.7656 36.0674 27.9765C36.1611 28.0984 36.3017 28.164 36.4471 28.164C36.5502 28.164 36.6486 28.1312 36.7377 28.0656C36.8643 27.9719 36.9861 27.8687 37.108 27.7703C37.3096 27.5969 37.3377 27.2969 37.1689 27.0953Z" fill="black"/>
</symbol>
 
<symbol id="leftarrow" width="24" height="40" viewBox="0 0 24 40" fill= "white">
<path d="M19 34L6.91422 21.9142C6.13317 21.1332 6.13317 19.8668 6.91421 19.0858L19 7" stroke="black" stroke-width="2" stroke-linecap="round"/>
</symbol>

<symbol id="rightarrow" width="24" height="40" viewBox="0 0 24 40" fill= "white">
<path d="M5 6L17.0858 18.0858C17.8668 18.8668 17.8668 20.1332 17.0858 20.9142L5 33"  stroke="black" stroke-width="2" stroke-linecap="round"/>
</symbol>

<symbol id="crossclose" width="20" height="20" viewBox="0 0 20 20" fill= "white"> 
<path d="M13.5556 10L19.3333 4.22222C20.2222 3.33333 20.2222 2 19.3333 1.22222L18.8889 0.777778C18 -0.111111 16.6667 -0.111111 15.8889 0.777778L10 6.44445L4.22222 0.666667C3.33333 -0.222222 2 -0.222222 1.11111 0.666667L0.666667 1.11111C-0.222222 2 -0.222222 3.33333 0.666667 4.11111L6.44445 10L0.666667 15.7778C-0.222222 16.6667 -0.222222 18 0.666667 18.7778L1.11111 19.3333C2 20.2222 3.33333 20.2222 4.11111 19.3333L10 13.5556L15.7778 19.3333C16.6667 20.2222 18 20.2222 18.7778 19.3333L19.2222 18.8889C20.1111 18 20.1111 16.6667 19.2222 15.8889L13.5556 10Z"/>
</symbol>

</svg>


